<mxfile host="app.diagrams.net" agent="Mozilla/5.0 (Windows NT 10.0; Win64; x64; rv:135.0) Gecko/20100101 Firefox/135.0" version="26.0.7" pages="4">
  <diagram name="Integration in SK Stack" id="AJdy7Rra7Lti-9Wc1cTH">
    <mxGraphModel dx="1434" dy="774" grid="1" gridSize="10" guides="1" tooltips="1" connect="1" arrows="1" fold="1" page="1" pageScale="1" pageWidth="850" pageHeight="1100" math="0" shadow="0">
      <root>
        <mxCell id="0" />
        <mxCell id="1" parent="0" />
        <mxCell id="zb29jM7eyeuKT2URVQqB-3" value="Swissknife Stack" style="rounded=0;whiteSpace=wrap;html=1;align=center;verticalAlign=top;dashed=1;" vertex="1" parent="1">
          <mxGeometry x="390" y="50" width="150" height="430" as="geometry" />
        </mxCell>
        <mxCell id="kD8x7BNR-cOVJDmsQ3UV-1" style="edgeStyle=orthogonalEdgeStyle;rounded=0;orthogonalLoop=1;jettySize=auto;html=1;" edge="1" parent="1" source="zb29jM7eyeuKT2URVQqB-5" target="zb29jM7eyeuKT2URVQqB-11">
          <mxGeometry relative="1" as="geometry" />
        </mxCell>
        <mxCell id="zb29jM7eyeuKT2URVQqB-5" value="result-service, doppelganger, etc..." style="rounded=0;whiteSpace=wrap;html=1;" vertex="1" parent="1">
          <mxGeometry x="405" y="90" width="120" height="60" as="geometry" />
        </mxCell>
        <mxCell id="zb29jM7eyeuKT2URVQqB-9" style="edgeStyle=orthogonalEdgeStyle;rounded=0;orthogonalLoop=1;jettySize=auto;html=1;entryX=0.5;entryY=0;entryDx=0;entryDy=0;startArrow=classic;startFill=1;" edge="1" parent="1" source="zb29jM7eyeuKT2URVQqB-6" target="zb29jM7eyeuKT2URVQqB-7">
          <mxGeometry relative="1" as="geometry" />
        </mxCell>
        <mxCell id="zb29jM7eyeuKT2URVQqB-10" value="JWT" style="edgeLabel;html=1;align=center;verticalAlign=middle;resizable=0;points=[];" vertex="1" connectable="0" parent="zb29jM7eyeuKT2URVQqB-9">
          <mxGeometry x="-0.0694" y="1" relative="1" as="geometry">
            <mxPoint x="-16" as="offset" />
          </mxGeometry>
        </mxCell>
        <mxCell id="zb29jM7eyeuKT2URVQqB-6" value="Authentication Service" style="rounded=0;whiteSpace=wrap;html=1;" vertex="1" parent="1">
          <mxGeometry x="405" y="190" width="120" height="60" as="geometry" />
        </mxCell>
        <mxCell id="kD8x7BNR-cOVJDmsQ3UV-3" style="edgeStyle=orthogonalEdgeStyle;rounded=0;orthogonalLoop=1;jettySize=auto;html=1;entryX=0;entryY=0.5;entryDx=0;entryDy=0;" edge="1" parent="1" source="zb29jM7eyeuKT2URVQqB-7" target="zb29jM7eyeuKT2URVQqB-5">
          <mxGeometry relative="1" as="geometry">
            <mxPoint x="320" y="120" as="targetPoint" />
            <Array as="points">
              <mxPoint x="320" y="420" />
              <mxPoint x="320" y="120" />
            </Array>
          </mxGeometry>
        </mxCell>
        <mxCell id="kD8x7BNR-cOVJDmsQ3UV-4" value="&lt;div&gt;Any other necessary&lt;/div&gt;&lt;div&gt;communication&lt;br&gt;&lt;/div&gt;" style="edgeLabel;html=1;align=center;verticalAlign=middle;resizable=0;points=[];rotation=270;" vertex="1" connectable="0" parent="kD8x7BNR-cOVJDmsQ3UV-3">
          <mxGeometry x="0.0766" y="-1" relative="1" as="geometry">
            <mxPoint x="-31" y="18" as="offset" />
          </mxGeometry>
        </mxCell>
        <mxCell id="zb29jM7eyeuKT2URVQqB-7" value="C-LAB Service" style="rounded=0;whiteSpace=wrap;html=1;" vertex="1" parent="1">
          <mxGeometry x="405" y="390" width="120" height="60" as="geometry" />
        </mxCell>
        <mxCell id="zb29jM7eyeuKT2URVQqB-13" style="edgeStyle=orthogonalEdgeStyle;rounded=0;orthogonalLoop=1;jettySize=auto;html=1;entryX=1;entryY=0.5;entryDx=0;entryDy=0;startArrow=classic;startFill=1;" edge="1" parent="1" source="zb29jM7eyeuKT2URVQqB-11" target="zb29jM7eyeuKT2URVQqB-6">
          <mxGeometry relative="1" as="geometry">
            <Array as="points">
              <mxPoint x="600" y="220" />
            </Array>
          </mxGeometry>
        </mxCell>
        <mxCell id="zb29jM7eyeuKT2URVQqB-11" value="&lt;div&gt;Shared Secrets&lt;/div&gt;" style="whiteSpace=wrap;html=1;shape=mxgraph.basic.document;verticalAlign=middle;labelPosition=right;verticalLabelPosition=middle;align=left;" vertex="1" parent="1">
          <mxGeometry x="590" y="300" width="20" height="30" as="geometry" />
        </mxCell>
        <mxCell id="zb29jM7eyeuKT2URVQqB-12" style="edgeStyle=orthogonalEdgeStyle;rounded=0;orthogonalLoop=1;jettySize=auto;html=1;entryX=0.5;entryY=1;entryDx=0;entryDy=0;entryPerimeter=0;startArrow=classic;startFill=1;" edge="1" parent="1" source="zb29jM7eyeuKT2URVQqB-7" target="zb29jM7eyeuKT2URVQqB-11">
          <mxGeometry relative="1" as="geometry" />
        </mxCell>
        <mxCell id="kD8x7BNR-cOVJDmsQ3UV-2" value="Local token auth with secret" style="edgeLabel;html=1;align=center;verticalAlign=middle;resizable=0;points=[];rotation=0;" vertex="1" connectable="0" parent="zb29jM7eyeuKT2URVQqB-12">
          <mxGeometry x="0.1515" y="-1" relative="1" as="geometry">
            <mxPoint x="19" y="30" as="offset" />
          </mxGeometry>
        </mxCell>
      </root>
    </mxGraphModel>
  </diagram>
  <diagram id="p1-cxs82tNJoRkUdpWYg" name="C-LAB service design">
    <mxGraphModel dx="1434" dy="774" grid="1" gridSize="10" guides="1" tooltips="1" connect="1" arrows="1" fold="1" page="1" pageScale="1" pageWidth="850" pageHeight="1100" math="0" shadow="0">
      <root>
        <mxCell id="0" />
        <mxCell id="1" parent="0" />
        <mxCell id="j9CF727CagGSCDgjBQ3e-1" style="edgeStyle=orthogonalEdgeStyle;rounded=0;orthogonalLoop=1;jettySize=auto;html=1;entryX=0.5;entryY=0;entryDx=0;entryDy=0;" parent="1" source="GCI8vUedrRkjoQX9cbDO-1" target="GCI8vUedrRkjoQX9cbDO-2" edge="1">
          <mxGeometry relative="1" as="geometry" />
        </mxCell>
        <mxCell id="GCI8vUedrRkjoQX9cbDO-1" value="API Gateway" style="rounded=0;whiteSpace=wrap;html=1;" parent="1" vertex="1">
          <mxGeometry x="370" y="230" width="120" height="60" as="geometry" />
        </mxCell>
        <mxCell id="j9CF727CagGSCDgjBQ3e-2" style="edgeStyle=orthogonalEdgeStyle;rounded=0;orthogonalLoop=1;jettySize=auto;html=1;" parent="1" source="GCI8vUedrRkjoQX9cbDO-2" target="GCI8vUedrRkjoQX9cbDO-5" edge="1">
          <mxGeometry relative="1" as="geometry" />
        </mxCell>
        <mxCell id="GCI8vUedrRkjoQX9cbDO-2" value="&lt;div&gt;Caching DB&lt;/div&gt;" style="rounded=0;whiteSpace=wrap;html=1;" parent="1" vertex="1">
          <mxGeometry x="180" y="340" width="120" height="60" as="geometry" />
        </mxCell>
        <mxCell id="j9CF727CagGSCDgjBQ3e-4" style="edgeStyle=orthogonalEdgeStyle;rounded=0;orthogonalLoop=1;jettySize=auto;html=1;entryX=0.5;entryY=1;entryDx=0;entryDy=0;" parent="1" source="GCI8vUedrRkjoQX9cbDO-3" target="GCI8vUedrRkjoQX9cbDO-1" edge="1">
          <mxGeometry relative="1" as="geometry" />
        </mxCell>
        <mxCell id="tSQDRXACMHGu3-CNyVym-1" style="edgeStyle=orthogonalEdgeStyle;rounded=0;orthogonalLoop=1;jettySize=auto;html=1;entryX=0;entryY=0.5;entryDx=0;entryDy=0;" edge="1" parent="1" source="GCI8vUedrRkjoQX9cbDO-3" target="GCI8vUedrRkjoQX9cbDO-2">
          <mxGeometry relative="1" as="geometry">
            <Array as="points">
              <mxPoint x="430" y="760" />
              <mxPoint x="110" y="760" />
              <mxPoint x="110" y="370" />
            </Array>
          </mxGeometry>
        </mxCell>
        <mxCell id="GCI8vUedrRkjoQX9cbDO-3" value="Database" style="rounded=0;whiteSpace=wrap;html=1;" parent="1" vertex="1">
          <mxGeometry x="370" y="640" width="120" height="60" as="geometry" />
        </mxCell>
        <mxCell id="GCI8vUedrRkjoQX9cbDO-4" value="Data Bucket ?" style="rounded=0;whiteSpace=wrap;html=1;" parent="1" vertex="1">
          <mxGeometry x="580" y="410" width="120" height="60" as="geometry" />
        </mxCell>
        <mxCell id="j9CF727CagGSCDgjBQ3e-3" style="edgeStyle=orthogonalEdgeStyle;rounded=0;orthogonalLoop=1;jettySize=auto;html=1;entryX=0;entryY=0.5;entryDx=0;entryDy=0;" parent="1" source="GCI8vUedrRkjoQX9cbDO-5" target="GCI8vUedrRkjoQX9cbDO-3" edge="1">
          <mxGeometry relative="1" as="geometry">
            <Array as="points">
              <mxPoint x="240" y="670" />
            </Array>
          </mxGeometry>
        </mxCell>
        <mxCell id="j9CF727CagGSCDgjBQ3e-10" value="No" style="edgeLabel;html=1;align=center;verticalAlign=middle;resizable=0;points=[];" parent="j9CF727CagGSCDgjBQ3e-3" vertex="1" connectable="0">
          <mxGeometry x="-0.6737" y="-1" relative="1" as="geometry">
            <mxPoint as="offset" />
          </mxGeometry>
        </mxCell>
        <mxCell id="j9CF727CagGSCDgjBQ3e-11" style="edgeStyle=orthogonalEdgeStyle;rounded=0;orthogonalLoop=1;jettySize=auto;html=1;" parent="1" source="GCI8vUedrRkjoQX9cbDO-5" edge="1">
          <mxGeometry relative="1" as="geometry">
            <mxPoint x="430" y="290" as="targetPoint" />
          </mxGeometry>
        </mxCell>
        <mxCell id="j9CF727CagGSCDgjBQ3e-12" value="Yes" style="edgeLabel;html=1;align=center;verticalAlign=middle;resizable=0;points=[];" parent="j9CF727CagGSCDgjBQ3e-11" vertex="1" connectable="0">
          <mxGeometry x="-0.7168" y="1" relative="1" as="geometry">
            <mxPoint as="offset" />
          </mxGeometry>
        </mxCell>
        <mxCell id="GCI8vUedrRkjoQX9cbDO-5" value="&lt;div&gt;Is resource&lt;/div&gt;&lt;div&gt;available?&lt;br&gt;&lt;/div&gt;" style="rhombus;whiteSpace=wrap;html=1;" parent="1" vertex="1">
          <mxGeometry x="180" y="500" width="120" height="110" as="geometry" />
        </mxCell>
        <mxCell id="j9CF727CagGSCDgjBQ3e-7" style="edgeStyle=orthogonalEdgeStyle;rounded=0;orthogonalLoop=1;jettySize=auto;html=1;" parent="1" source="j9CF727CagGSCDgjBQ3e-5" target="GCI8vUedrRkjoQX9cbDO-1" edge="1">
          <mxGeometry relative="1" as="geometry" />
        </mxCell>
        <mxCell id="j9CF727CagGSCDgjBQ3e-5" value="Frontend" style="rounded=0;whiteSpace=wrap;html=1;" parent="1" vertex="1">
          <mxGeometry x="295" y="30" width="120" height="60" as="geometry" />
        </mxCell>
        <mxCell id="j9CF727CagGSCDgjBQ3e-8" style="edgeStyle=orthogonalEdgeStyle;rounded=0;orthogonalLoop=1;jettySize=auto;html=1;entryX=0.5;entryY=0;entryDx=0;entryDy=0;" parent="1" source="j9CF727CagGSCDgjBQ3e-6" target="GCI8vUedrRkjoQX9cbDO-1" edge="1">
          <mxGeometry relative="1" as="geometry" />
        </mxCell>
        <mxCell id="j9CF727CagGSCDgjBQ3e-6" value="Standalone HTTP Request" style="rounded=0;whiteSpace=wrap;html=1;" parent="1" vertex="1">
          <mxGeometry x="435" y="30" width="120" height="60" as="geometry" />
        </mxCell>
      </root>
    </mxGraphModel>
  </diagram>
  <diagram id="cigsMsYCM3KtSGu09JEG" name="CLAB Overview Design">
    <mxGraphModel dx="1195" dy="645" grid="1" gridSize="10" guides="1" tooltips="1" connect="1" arrows="1" fold="1" page="1" pageScale="1" pageWidth="850" pageHeight="1100" math="0" shadow="0">
      <root>
        <mxCell id="0" />
        <mxCell id="1" parent="0" />
        <mxCell id="Wno2BWJetaqZX8nvHIoc-9" style="edgeStyle=orthogonalEdgeStyle;rounded=0;orthogonalLoop=1;jettySize=auto;html=1;entryX=0;entryY=0.5;entryDx=0;entryDy=0;" edge="1" parent="1" source="Wno2BWJetaqZX8nvHIoc-3" target="Wno2BWJetaqZX8nvHIoc-5">
          <mxGeometry relative="1" as="geometry" />
        </mxCell>
        <mxCell id="Wno2BWJetaqZX8nvHIoc-10" style="edgeStyle=orthogonalEdgeStyle;rounded=0;orthogonalLoop=1;jettySize=auto;html=1;" edge="1" parent="1" source="Wno2BWJetaqZX8nvHIoc-3" target="Wno2BWJetaqZX8nvHIoc-7">
          <mxGeometry relative="1" as="geometry" />
        </mxCell>
        <mxCell id="Wno2BWJetaqZX8nvHIoc-11" style="edgeStyle=orthogonalEdgeStyle;rounded=0;orthogonalLoop=1;jettySize=auto;html=1;entryX=0;entryY=0.5;entryDx=0;entryDy=0;" edge="1" parent="1" source="Wno2BWJetaqZX8nvHIoc-3" target="Wno2BWJetaqZX8nvHIoc-8">
          <mxGeometry relative="1" as="geometry" />
        </mxCell>
        <mxCell id="Wno2BWJetaqZX8nvHIoc-3" value="Frontend" style="rounded=1;whiteSpace=wrap;html=1;" vertex="1" parent="1">
          <mxGeometry x="40" y="170" width="120" height="60" as="geometry" />
        </mxCell>
        <mxCell id="Wno2BWJetaqZX8nvHIoc-16" style="edgeStyle=orthogonalEdgeStyle;rounded=0;orthogonalLoop=1;jettySize=auto;html=1;" edge="1" parent="1" source="Wno2BWJetaqZX8nvHIoc-5" target="Wno2BWJetaqZX8nvHIoc-15">
          <mxGeometry relative="1" as="geometry" />
        </mxCell>
        <mxCell id="Wno2BWJetaqZX8nvHIoc-5" value="&lt;div&gt;SaST Service&lt;/div&gt;" style="rounded=1;whiteSpace=wrap;html=1;" vertex="1" parent="1">
          <mxGeometry x="300" y="90" width="120" height="60" as="geometry" />
        </mxCell>
        <mxCell id="Wno2BWJetaqZX8nvHIoc-17" style="edgeStyle=orthogonalEdgeStyle;rounded=0;orthogonalLoop=1;jettySize=auto;html=1;" edge="1" parent="1" source="Wno2BWJetaqZX8nvHIoc-7" target="Wno2BWJetaqZX8nvHIoc-15">
          <mxGeometry relative="1" as="geometry" />
        </mxCell>
        <mxCell id="Wno2BWJetaqZX8nvHIoc-7" value="&lt;div&gt;DaST Service&lt;/div&gt;" style="rounded=1;whiteSpace=wrap;html=1;" vertex="1" parent="1">
          <mxGeometry x="300" y="170" width="120" height="60" as="geometry" />
        </mxCell>
        <mxCell id="Wno2BWJetaqZX8nvHIoc-18" style="edgeStyle=orthogonalEdgeStyle;rounded=0;orthogonalLoop=1;jettySize=auto;html=1;entryX=0.5;entryY=1;entryDx=0;entryDy=0;" edge="1" parent="1" source="Wno2BWJetaqZX8nvHIoc-8" target="Wno2BWJetaqZX8nvHIoc-15">
          <mxGeometry relative="1" as="geometry" />
        </mxCell>
        <mxCell id="Wno2BWJetaqZX8nvHIoc-8" value="&lt;div&gt;IaC Service&lt;/div&gt;" style="rounded=1;whiteSpace=wrap;html=1;" vertex="1" parent="1">
          <mxGeometry x="300" y="250" width="120" height="60" as="geometry" />
        </mxCell>
        <mxCell id="Wno2BWJetaqZX8nvHIoc-29" style="edgeStyle=orthogonalEdgeStyle;rounded=0;orthogonalLoop=1;jettySize=auto;html=1;entryX=0.75;entryY=1;entryDx=0;entryDy=0;" edge="1" parent="1" source="Wno2BWJetaqZX8nvHIoc-12" target="Wno2BWJetaqZX8nvHIoc-3">
          <mxGeometry relative="1" as="geometry" />
        </mxCell>
        <mxCell id="Wno2BWJetaqZX8nvHIoc-12" value="Database" style="rounded=1;whiteSpace=wrap;html=1;" vertex="1" parent="1">
          <mxGeometry x="300" y="360" width="120" height="60" as="geometry" />
        </mxCell>
        <mxCell id="Wno2BWJetaqZX8nvHIoc-30" style="edgeStyle=orthogonalEdgeStyle;rounded=0;orthogonalLoop=1;jettySize=auto;html=1;entryX=0.75;entryY=1;entryDx=0;entryDy=0;" edge="1" parent="1" source="Wno2BWJetaqZX8nvHIoc-13" target="Wno2BWJetaqZX8nvHIoc-3">
          <mxGeometry relative="1" as="geometry" />
        </mxCell>
        <mxCell id="Wno2BWJetaqZX8nvHIoc-13" value="Object Storage" style="rounded=1;whiteSpace=wrap;html=1;" vertex="1" parent="1">
          <mxGeometry x="300" y="440" width="120" height="60" as="geometry" />
        </mxCell>
        <mxCell id="Wno2BWJetaqZX8nvHIoc-26" style="edgeStyle=orthogonalEdgeStyle;rounded=0;orthogonalLoop=1;jettySize=auto;html=1;" edge="1" parent="1" source="Wno2BWJetaqZX8nvHIoc-14" target="Wno2BWJetaqZX8nvHIoc-3">
          <mxGeometry relative="1" as="geometry">
            <Array as="points">
              <mxPoint x="70" y="590" />
            </Array>
          </mxGeometry>
        </mxCell>
        <mxCell id="Wno2BWJetaqZX8nvHIoc-14" value="Cache" style="rounded=1;whiteSpace=wrap;html=1;" vertex="1" parent="1">
          <mxGeometry x="300" y="560" width="120" height="60" as="geometry" />
        </mxCell>
        <mxCell id="Wno2BWJetaqZX8nvHIoc-19" style="edgeStyle=orthogonalEdgeStyle;rounded=0;orthogonalLoop=1;jettySize=auto;html=1;entryX=1;entryY=0.5;entryDx=0;entryDy=0;" edge="1" parent="1" source="Wno2BWJetaqZX8nvHIoc-15" target="Wno2BWJetaqZX8nvHIoc-14">
          <mxGeometry relative="1" as="geometry">
            <mxPoint x="750" y="290" as="targetPoint" />
            <Array as="points">
              <mxPoint x="680" y="200" />
              <mxPoint x="680" y="590" />
            </Array>
          </mxGeometry>
        </mxCell>
        <mxCell id="Wno2BWJetaqZX8nvHIoc-20" value="Yes" style="edgeLabel;html=1;align=center;verticalAlign=middle;resizable=0;points=[];" vertex="1" connectable="0" parent="Wno2BWJetaqZX8nvHIoc-19">
          <mxGeometry x="-0.068" y="1" relative="1" as="geometry">
            <mxPoint x="-121" y="88" as="offset" />
          </mxGeometry>
        </mxCell>
        <mxCell id="Wno2BWJetaqZX8nvHIoc-22" style="edgeStyle=orthogonalEdgeStyle;rounded=0;orthogonalLoop=1;jettySize=auto;html=1;entryX=1;entryY=0.5;entryDx=0;entryDy=0;" edge="1" parent="1" source="Wno2BWJetaqZX8nvHIoc-15" target="Wno2BWJetaqZX8nvHIoc-12">
          <mxGeometry relative="1" as="geometry">
            <mxPoint x="680" y="420" as="targetPoint" />
            <Array as="points">
              <mxPoint x="680" y="200" />
              <mxPoint x="680" y="390" />
            </Array>
          </mxGeometry>
        </mxCell>
        <mxCell id="Wno2BWJetaqZX8nvHIoc-23" value="No" style="edgeLabel;html=1;align=center;verticalAlign=middle;resizable=0;points=[];" vertex="1" connectable="0" parent="Wno2BWJetaqZX8nvHIoc-22">
          <mxGeometry x="-0.1755" y="-3" relative="1" as="geometry">
            <mxPoint x="-117" y="8" as="offset" />
          </mxGeometry>
        </mxCell>
        <mxCell id="Wno2BWJetaqZX8nvHIoc-24" style="edgeStyle=orthogonalEdgeStyle;rounded=0;orthogonalLoop=1;jettySize=auto;html=1;entryX=1;entryY=0.5;entryDx=0;entryDy=0;" edge="1" parent="1" source="Wno2BWJetaqZX8nvHIoc-15" target="Wno2BWJetaqZX8nvHIoc-13">
          <mxGeometry relative="1" as="geometry">
            <Array as="points">
              <mxPoint x="680" y="200" />
              <mxPoint x="680" y="390" />
              <mxPoint x="500" y="390" />
              <mxPoint x="500" y="470" />
            </Array>
          </mxGeometry>
        </mxCell>
        <mxCell id="Wno2BWJetaqZX8nvHIoc-15" value="is cached?" style="rhombus;whiteSpace=wrap;html=1;" vertex="1" parent="1">
          <mxGeometry x="560" y="160" width="80" height="80" as="geometry" />
        </mxCell>
        <mxCell id="Wno2BWJetaqZX8nvHIoc-34" style="edgeStyle=orthogonalEdgeStyle;rounded=0;orthogonalLoop=1;jettySize=auto;html=1;entryX=0;entryY=0.5;entryDx=0;entryDy=0;" edge="1" parent="1" source="Wno2BWJetaqZX8nvHIoc-31" target="Wno2BWJetaqZX8nvHIoc-7">
          <mxGeometry relative="1" as="geometry">
            <Array as="points">
              <mxPoint x="200" y="120" />
              <mxPoint x="200" y="200" />
            </Array>
          </mxGeometry>
        </mxCell>
        <mxCell id="Wno2BWJetaqZX8nvHIoc-31" value="HTTP Request" style="rounded=1;whiteSpace=wrap;html=1;" vertex="1" parent="1">
          <mxGeometry x="40" y="90" width="120" height="60" as="geometry" />
        </mxCell>
      </root>
    </mxGraphModel>
  </diagram>
  <diagram id="1yg8JtiOHzVT_fAw5ka9" name="CLAB Tech Stack">
    <mxGraphModel dx="1434" dy="774" grid="1" gridSize="10" guides="1" tooltips="1" connect="1" arrows="1" fold="1" page="1" pageScale="1" pageWidth="850" pageHeight="1100" math="0" shadow="0">
      <root>
        <mxCell id="0" />
        <mxCell id="1" parent="0" />
        <mxCell id="701YrJpAbFropww0fSCw-11" value="" style="group" vertex="1" connectable="0" parent="1">
          <mxGeometry x="40" y="150" width="202.5" height="152.5" as="geometry" />
        </mxCell>
        <mxCell id="701YrJpAbFropww0fSCw-4" value="Frontend" style="rounded=1;whiteSpace=wrap;html=1;verticalAlign=bottom;labelPosition=center;verticalLabelPosition=top;align=center;" vertex="1" parent="701YrJpAbFropww0fSCw-11">
          <mxGeometry y="22.5" width="180" height="130" as="geometry" />
        </mxCell>
        <mxCell id="701YrJpAbFropww0fSCw-2" value="" style="shape=image;html=1;verticalAlign=top;verticalLabelPosition=bottom;labelBackgroundColor=#ffffff;imageAspect=0;aspect=fixed;image=https://cdn1.iconfinder.com/data/icons/unicons-line-vol-5/24/react-128.png;strokeWidth=1;" vertex="1" parent="701YrJpAbFropww0fSCw-11">
          <mxGeometry x="10" y="47.5" width="80" height="80" as="geometry" />
        </mxCell>
        <mxCell id="701YrJpAbFropww0fSCw-5" value="" style="shape=image;verticalLabelPosition=bottom;labelBackgroundColor=default;verticalAlign=top;aspect=fixed;imageAspect=0;editableCssRules=.*;image=data:image/svg+xml,PHN2ZyB4bWxuczp4bGluaz0iaHR0cDovL3d3dy53My5vcmcvMTk5OS94bGluayIgeG1sbnM9Imh0dHA6Ly93d3cudzMub3JnLzIwMDAvc3ZnIiB2ZXJzaW9uPSIxLjEiIHZpZXdCb3g9IjAgMCAyMDAgMjAwIiBoZWlnaHQ9IjIwMHB4IiB3aWR0aD0iMjAwcHgiPiYjeGE7ICAgICYjeGE7ICAgIDx0aXRsZT5Hcm91cCAyOCBDb3B5IDU8L3RpdGxlPiYjeGE7ICAgIDxkZXNjPkNyZWF0ZWQgd2l0aCBTa2V0Y2guPC9kZXNjPiYjeGE7ICAgIDxkZWZzPiYjeGE7ICAgICAgICA8bGluZWFyR3JhZGllbnQgaWQ9ImxpbmVhckdyYWRpZW50LTEiIHkyPSIzNy44NjM1NzY0JSIgeDI9IjEwOC4xOTcxOCUiIHkxPSIwJSIgeDE9IjYyLjEwMjMyNzMlIj4mI3hhOyAgICAgICAgICAgIDxzdG9wIG9mZnNldD0iMCUiIHN0b3AtY29sb3I9IiM0Mjg1RUIiLz4mI3hhOyAgICAgICAgICAgIDxzdG9wIG9mZnNldD0iMTAwJSIgc3RvcC1jb2xvcj0iIzJFQzdGRiIvPiYjeGE7ICAgICAgICA8L2xpbmVhckdyYWRpZW50PiYjeGE7ICAgICAgICA8bGluZWFyR3JhZGllbnQgaWQ9ImxpbmVhckdyYWRpZW50LTIiIHkyPSIxMDguNDU2NzE0JSIgeDI9IjU0LjA0Mjg5NzUlIiB5MT0iMCUiIHgxPSI2OS42NDQxMTYlIj4mI3hhOyAgICAgICAgICAgIDxzdG9wIG9mZnNldD0iMCUiIHN0b3AtY29sb3I9IiMyOUNERkYiLz4mI3hhOyAgICAgICAgICAgIDxzdG9wIG9mZnNldD0iMzcuODYwMDY4NyUiIHN0b3AtY29sb3I9IiMxNDhFRkYiLz4mI3hhOyAgICAgICAgICAgIDxzdG9wIG9mZnNldD0iMTAwJSIgc3RvcC1jb2xvcj0iIzBBNjBGRiIvPiYjeGE7ICAgICAgICA8L2xpbmVhckdyYWRpZW50PiYjeGE7ICAgICAgICA8bGluZWFyR3JhZGllbnQgaWQ9ImxpbmVhckdyYWRpZW50LTMiIHkyPSIxMTcuMzkxMjQ4JSIgeDI9IjE2LjcyMjg5ODElIiB5MT0iLTEyLjk3NDM1ODclIiB4MT0iNjkuNjkwODE2NSUiPiYjeGE7ICAgICAgICAgICAgPHN0b3Agb2Zmc2V0PSIwJSIgc3RvcC1jb2xvcj0iI0ZBODE2RSIvPiYjeGE7ICAgICAgICAgICAgPHN0b3Agb2Zmc2V0PSI0MS40NzI2MDYlIiBzdG9wLWNvbG9yPSIjRjc0QTVDIi8+JiN4YTsgICAgICAgICAgICA8c3RvcCBvZmZzZXQ9IjEwMCUiIHN0b3AtY29sb3I9IiNGNTFEMkMiLz4mI3hhOyAgICAgICAgPC9saW5lYXJHcmFkaWVudD4mI3hhOyAgICAgICAgPGxpbmVhckdyYWRpZW50IGlkPSJsaW5lYXJHcmFkaWVudC00IiB5Mj0iMTE0Ljk0MjY3OSUiIHgyPSIzMC40NDAwOTE0JSIgeTE9Ii0zNS42OTA1NzM3JSIgeDE9IjY4LjEyNzk4NzIlIj4mI3hhOyAgICAgICAgICAgIDxzdG9wIG9mZnNldD0iMCUiIHN0b3AtY29sb3I9IiNGQThFN0QiLz4mI3hhOyAgICAgICAgICAgIDxzdG9wIG9mZnNldD0iNTEuMjYzNTE5MSUiIHN0b3AtY29sb3I9IiNGNzRBNUMiLz4mI3hhOyAgICAgICAgICAgIDxzdG9wIG9mZnNldD0iMTAwJSIgc3RvcC1jb2xvcj0iI0Y1MUQyQyIvPiYjeGE7ICAgICAgICA8L2xpbmVhckdyYWRpZW50PiYjeGE7ICAgIDwvZGVmcz4mI3hhOyAgICA8ZyBmaWxsLXJ1bGU9ImV2ZW5vZGQiIGZpbGw9Im5vbmUiIHN0cm9rZS13aWR0aD0iMSIgc3Ryb2tlPSJub25lIiBpZD0iUGFnZS0xIj4mI3hhOyAgICAgICAgPGcgdHJhbnNmb3JtPSJ0cmFuc2xhdGUoLTIwLjAwMDAwMCwgLTIwLjAwMDAwMCkiIGlkPSJsb2dvIj4mI3hhOyAgICAgICAgICAgIDxnIHRyYW5zZm9ybT0idHJhbnNsYXRlKDIwLjAwMDAwMCwgMjAuMDAwMDAwKSIgaWQ9Ikdyb3VwLTI4LUNvcHktNSI+JiN4YTsgICAgICAgICAgICAgICAgPGcgaWQ9Ikdyb3VwLTI3LUNvcHktMyI+JiN4YTsgICAgICAgICAgICAgICAgICAgIDxnIGZpbGwtcnVsZT0ibm9uemVybyIgaWQ9Ikdyb3VwLTI1Ij4mI3hhOyAgICAgICAgICAgICAgICAgICAgICAgIDxnIGlkPSIyIj4mI3hhOyAgICAgICAgICAgICAgICAgICAgICAgICAgICA8cGF0aCBmaWxsPSJ1cmwoI2xpbmVhckdyYWRpZW50LTEpIiBpZD0iU2hhcGUiIGQ9Ik05MS41ODgwODYzLDQuMTc2NTI4MjMgTDQuMTc5OTY1NDQsOTEuNTEyNzcyOCBDLTAuNTE5MjQwNjA1LDk2LjIwODExNDYgLTAuNTE5MjQwNjA1LDEwMy43OTE4ODUgNC4xNzk5NjU0NCwxMDguNDg3MjI3IEw5MS41ODgwODYzLDE5NS44MjM0NzIgQzk2LjI4NzI5MjMsMjAwLjUxODgxNCAxMDMuODc3MzA0LDIwMC41MTg4MTQgMTA4LjU3NjUxLDE5NS44MjM0NzIgTDE0NS4yMjU0ODcsMTU5LjIwNDYzMiBDMTQ5LjQzMzk2OSwxNTQuOTk5NjExIDE0OS40MzM5NjksMTQ4LjE4MTkyNCAxNDUuMjI1NDg3LDE0My45NzY5MDMgQzE0MS4wMTcwMDUsMTM5Ljc3MTg4MSAxMzQuMTkzNzA3LDEzOS43NzE4ODEgMTI5Ljk4NTIyNSwxNDMuOTc2OTAzIEwxMDIuMjAxOTMsMTcxLjczNzM1MiBDMTAxLjAzMjMwNSwxNzIuOTA2MDE1IDk5LjI1NzE2MDksMTcyLjkwNjAxNSA5OC4wODc1MzU5LDE3MS43MzczNTIgTDI4LjI4NTkwOCwxMDEuOTkzMTIyIEMyNy4xMTYyODMxLDEwMC44MjQ0NTkgMjcuMTE2MjgzMSw5OS4wNTA3NzUgMjguMjg1OTA4LDk3Ljg4MjExMTggTDk4LjA4NzUzNTksMjguMTM3ODgyMyBDOTkuMjU3MTYwOSwyNi45NjkyMTkxIDEwMS4wMzIzMDUsMjYuOTY5MjE5MSAxMDIuMjAxOTMsMjguMTM3ODgyMyBMMTI5Ljk4NTIyNSw1NS44OTgzMzE0IEMxMzQuMTkzNzA3LDYwLjEwMzM1MjggMTQxLjAxNzAwNSw2MC4xMDMzNTI4IDE0NS4yMjU0ODcsNTUuODk4MzMxNCBDMTQ5LjQzMzk2OSw1MS42OTMzMSAxNDkuNDMzOTY5LDQ0Ljg3NTYyMzIgMTQ1LjIyNTQ4Nyw0MC42NzA2MDE4IEwxMDguNTgwNTUsNC4wNTU3NDU5MiBDMTAzLjg2MjA0OSwtMC41Mzc5ODY4NDYgOTYuMjY5MjYxOCwtMC41MDA3OTc5MDYgOTEuNTg4MDg2Myw0LjE3NjUyODIzIFoiLz4mI3hhOyAgICAgICAgICAgICAgICAgICAgICAgICAgICA8cGF0aCBmaWxsPSJ1cmwoI2xpbmVhckdyYWRpZW50LTIpIiBpZD0iU2hhcGUiIGQ9Ik05MS41ODgwODYzLDQuMTc2NTI4MjMgTDQuMTc5OTY1NDQsOTEuNTEyNzcyOCBDLTAuNTE5MjQwNjA1LDk2LjIwODExNDYgLTAuNTE5MjQwNjA1LDEwMy43OTE4ODUgNC4xNzk5NjU0NCwxMDguNDg3MjI3IEw5MS41ODgwODYzLDE5NS44MjM0NzIgQzk2LjI4NzI5MjMsMjAwLjUxODgxNCAxMDMuODc3MzA0LDIwMC41MTg4MTQgMTA4LjU3NjUxLDE5NS44MjM0NzIgTDE0NS4yMjU0ODcsMTU5LjIwNDYzMiBDMTQ5LjQzMzk2OSwxNTQuOTk5NjExIDE0OS40MzM5NjksMTQ4LjE4MTkyNCAxNDUuMjI1NDg3LDE0My45NzY5MDMgQzE0MS4wMTcwMDUsMTM5Ljc3MTg4MSAxMzQuMTkzNzA3LDEzOS43NzE4ODEgMTI5Ljk4NTIyNSwxNDMuOTc2OTAzIEwxMDIuMjAxOTMsMTcxLjczNzM1MiBDMTAxLjAzMjMwNSwxNzIuOTA2MDE1IDk5LjI1NzE2MDksMTcyLjkwNjAxNSA5OC4wODc1MzU5LDE3MS43MzczNTIgTDI4LjI4NTkwOCwxMDEuOTkzMTIyIEMyNy4xMTYyODMxLDEwMC44MjQ0NTkgMjcuMTE2MjgzMSw5OS4wNTA3NzUgMjguMjg1OTA4LDk3Ljg4MjExMTggTDk4LjA4NzUzNTksMjguMTM3ODgyMyBDMTAwLjk5OTg2NCwyNS42MjcxODM2IDEwNS43NTE2NDIsMjAuNTQxODI0IDExMi43Mjk2NTIsMTkuMzUyNDQ4NyBDMTE3LjkxNTU4NSwxOC40Njg1MjYxIDEyMy41ODUyMTksMjAuNDE0MDIzOSAxMjkuNzM4NTU0LDI1LjE4ODk0MjQgQzEyNS42MjQ2NjMsMjEuMDc4NDI5MiAxMTguNTcxOTk1LDE0LjAzNDAzMDQgMTA4LjU4MDU1LDQuMDU1NzQ1OTIgQzEwMy44NjIwNDksLTAuNTM3OTg2ODQ2IDk2LjI2OTI2MTgsLTAuNTAwNzk3OTA2IDkxLjU4ODA4NjMsNC4xNzY1MjgyMyBaIi8+JiN4YTsgICAgICAgICAgICAgICAgICAgICAgICA8L2c+JiN4YTsgICAgICAgICAgICAgICAgICAgICAgICA8cGF0aCBmaWxsPSJ1cmwoI2xpbmVhckdyYWRpZW50LTMpIiBpZD0iU2hhcGUiIGQ9Ik0xNTMuNjg1NjMzLDEzNS44NTQ1NzkgQzE1Ny44OTQxMTUsMTQwLjA1OTYgMTY0LjcxNzQxMiwxNDAuMDU5NiAxNjguOTI1ODk0LDEzNS44NTQ1NzkgTDE5NS45NTk5NzcsMTA4Ljg0MjcyNiBDMjAwLjY1OTE4MywxMDQuMTQ3Mzg0IDIwMC42NTkxODMsOTYuNTYzNjEzMyAxOTUuOTYwNTI3LDkxLjg2ODgxOTQgTDE2OC42OTA3NzcsNjQuNzE4MTE1OSBDMTY0LjQ3MjMzMiw2MC41MTgwODU4IDE1Ny42NDY4NjgsNjAuNTI0MTQyNSAxNTMuNDM1ODk1LDY0LjczMTY1MjYgQzE0OS4yMjc0MTMsNjguOTM2Njc0IDE0OS4yMjc0MTMsNzUuNzU0MzYwNyAxNTMuNDM1ODk1LDc5Ljk1OTM4MjEgTDE3MS44NTQwMzUsOTguMzYyMzc2NSBDMTczLjAyMzY2LDk5LjUzMTAzOTYgMTczLjAyMzY2LDEwMS4zMDQ3MjQgMTcxLjg1NDAzNSwxMDIuNDczMzg3IEwxNTMuNjg1NjMzLDEyMC42MjY4NDkgQzE0OS40NzcxNSwxMjQuODMxODcgMTQ5LjQ3NzE1LDEzMS42NDk1NTcgMTUzLjY4NTYzMywxMzUuODU0NTc5IFoiLz4mI3hhOyAgICAgICAgICAgICAgICAgICAgPC9nPiYjeGE7ICAgICAgICAgICAgICAgICAgICA8ZWxsaXBzZSByeT0iMjMuNTgwNzg2IiByeD0iMjMuNjAwMTkyNiIgY3k9IjEwMC40MzY2ODEiIGN4PSIxMDAuNTE5MzM5IiBmaWxsPSJ1cmwoI2xpbmVhckdyYWRpZW50LTQpIiBpZD0iQ29tYmluZWQtU2hhcGUiLz4mI3hhOyAgICAgICAgICAgICAgICA8L2c+JiN4YTsgICAgICAgICAgICA8L2c+JiN4YTsgICAgICAgIDwvZz4mI3hhOyAgICA8L2c+JiN4YTs8L3N2Zz4=;" vertex="1" parent="701YrJpAbFropww0fSCw-11">
          <mxGeometry x="100" y="60" width="55" height="55" as="geometry" />
        </mxCell>
        <mxCell id="701YrJpAbFropww0fSCw-6" value="" style="shape=image;html=1;verticalAlign=top;verticalLabelPosition=bottom;labelBackgroundColor=#ffffff;imageAspect=0;aspect=fixed;image=https://cdn1.iconfinder.com/data/icons/unicons-line-vol-3/24/docker-128.png" vertex="1" parent="701YrJpAbFropww0fSCw-11">
          <mxGeometry x="155" width="47.5" height="47.5" as="geometry" />
        </mxCell>
        <mxCell id="701YrJpAbFropww0fSCw-25" value="" style="group" vertex="1" connectable="0" parent="1">
          <mxGeometry x="321" y="185" width="147.5" height="82.5" as="geometry" />
        </mxCell>
        <mxCell id="701YrJpAbFropww0fSCw-17" value="Backend Service" style="rounded=1;whiteSpace=wrap;html=1;labelPosition=center;verticalLabelPosition=top;align=center;verticalAlign=bottom;" vertex="1" parent="701YrJpAbFropww0fSCw-25">
          <mxGeometry y="22.5" width="120" height="60" as="geometry" />
        </mxCell>
        <mxCell id="701YrJpAbFropww0fSCw-18" value="" style="points=[];aspect=fixed;html=1;align=center;shadow=0;dashed=0;fillColor=#FF6A00;strokeColor=none;shape=mxgraph.alibaba_cloud.nodejs_performance_platform;" vertex="1" parent="701YrJpAbFropww0fSCw-25">
          <mxGeometry x="39" y="28.80000000000001" width="42" height="47.400000000000006" as="geometry" />
        </mxCell>
        <mxCell id="701YrJpAbFropww0fSCw-24" value="" style="shape=image;html=1;verticalAlign=top;verticalLabelPosition=bottom;labelBackgroundColor=#ffffff;imageAspect=0;aspect=fixed;image=https://cdn1.iconfinder.com/data/icons/unicons-line-vol-3/24/docker-128.png" vertex="1" parent="701YrJpAbFropww0fSCw-25">
          <mxGeometry x="100" width="47.5" height="47.5" as="geometry" />
        </mxCell>
        <mxCell id="701YrJpAbFropww0fSCw-34" style="edgeStyle=orthogonalEdgeStyle;rounded=0;orthogonalLoop=1;jettySize=auto;html=1;startArrow=classic;startFill=1;" edge="1" parent="1" source="701YrJpAbFropww0fSCw-4" target="701YrJpAbFropww0fSCw-17">
          <mxGeometry relative="1" as="geometry" />
        </mxCell>
        <mxCell id="701YrJpAbFropww0fSCw-74" value="HTTP" style="edgeLabel;html=1;align=center;verticalAlign=middle;resizable=0;points=[];" vertex="1" connectable="0" parent="701YrJpAbFropww0fSCw-34">
          <mxGeometry x="-0.0693" relative="1" as="geometry">
            <mxPoint x="3" y="13" as="offset" />
          </mxGeometry>
        </mxCell>
        <mxCell id="701YrJpAbFropww0fSCw-75" value="Socket" style="edgeLabel;html=1;align=center;verticalAlign=middle;resizable=0;points=[];" vertex="1" connectable="0" parent="701YrJpAbFropww0fSCw-34">
          <mxGeometry x="0.0372" y="1" relative="1" as="geometry">
            <mxPoint x="-2" y="-16" as="offset" />
          </mxGeometry>
        </mxCell>
        <mxCell id="701YrJpAbFropww0fSCw-40" value="" style="group" vertex="1" connectable="0" parent="1">
          <mxGeometry x="590" y="60" width="167.5" height="97.5" as="geometry" />
        </mxCell>
        <mxCell id="701YrJpAbFropww0fSCw-38" value="Database" style="rounded=1;whiteSpace=wrap;html=1;labelPosition=center;verticalLabelPosition=top;align=center;verticalAlign=bottom;" vertex="1" parent="701YrJpAbFropww0fSCw-40">
          <mxGeometry y="27.5" width="140" height="70" as="geometry" />
        </mxCell>
        <mxCell id="701YrJpAbFropww0fSCw-37" value="" style="shape=image;verticalLabelPosition=bottom;labelBackgroundColor=default;verticalAlign=top;aspect=fixed;imageAspect=0;editableCssRules=.*;image=data:image/svg+xml,PHN2ZyBmaWxsPSJub25lIiB2aWV3Qm94PSIwIDAgMTEwMiAyNzgiIGhlaWdodD0iMjc4IiB3aWR0aD0iMTEwMiIgeG1sbnM9Imh0dHA6Ly93d3cudzMub3JnLzIwMDAvc3ZnIj4mI3hhOzxwYXRoIGZpbGw9IiMwMDFFMkIiIGQ9Ik04Mi4zMjI5IDI4LjY0NDRDNzEuNTM2NyAxNS44NDY5IDYyLjI0ODUgMi44NDk0NSA2MC4zNTEgMC4xNDk5NzFDNjAuMTUxMiAtMC4wNDk5OTAzIDU5Ljg1MTUgLTAuMDQ5OTkwMyA1OS42NTE4IDAuMTQ5OTcxQzU3Ljc1NDIgMi44NDk0NSA0OC40NjYxIDE1Ljg0NjkgMzcuNjc5OCAyOC42NDQ0Qy01NC45MDE5IDE0Ni43MjEgNTIuMjYxMyAyMjYuNDA2IDUyLjI2MTMgMjI2LjQwNkw1My4xNjAxIDIyNy4wMDZDNTMuOTU5IDIzOS4zMDMgNTUuOTU2NSAyNTcgNTUuOTU2NSAyNTdINTkuOTUxNEg2My45NDYzQzYzLjk0NjMgMjU3IDY1Ljk0MzggMjM5LjQwMyA2Ni43NDI4IDIyNy4wMDZMNjcuNjQxNiAyMjYuMzA2QzY3Ljc0MTQgMjI2LjQwNiAxNzQuOTA1IDE0Ni43MjEgODIuMzIyOSAyOC42NDQ0Wk01OS45NTE0IDIyNC42MDZDNTkuOTUxNCAyMjQuNjA2IDU1LjE1NzYgMjIwLjUwNyA1My44NTkyIDIxOC40MDhWMjE4LjIwN0w1OS42NTE4IDg5LjYzMjZDNTkuNjUxOCA4OS4yMzI2IDYwLjI1MTEgODkuMjMyNiA2MC4yNTExIDg5LjYzMjZMNjYuMDQzNiAyMTguMjA3VjIxOC40MDhDNjQuNzQ1MyAyMjAuNTA3IDU5Ljk1MTQgMjI0LjYwNiA1OS45NTE0IDIyNC42MDZaIi8+JiN4YTs8cGF0aCBmaWxsPSIjMDAxRTJCIiBkPSJNMjYwLjUwMSAxOTguMzY5TDIxNS44NDUgODkuMzAxMkwyMTUuNzQ1IDg5SDE4MS4wMDFWOTYuMzMxNEgxODYuNjA4QzE4OC4zMSA5Ni4zMzE0IDE4OS45MTIgOTcuMDM0NCAxOTEuMTE0IDk4LjIzOTZDMTkyLjMxNSA5OS40NDQ3IDE5Mi45MTYgMTAxLjA1MiAxOTIuOTE2IDEwMi43NTlMMTkxLjkxNSAyMTIuNTNDMTkxLjkxNSAyMTUuOTQ0IDE4OS4xMTIgMjE4Ljc1NiAxODUuNzA3IDIxOC44NTdMMTgwIDIxOC45NTdWMjI2LjE4OEgyMTMuODQzVjIxOC45NTdMMjEwLjMzOCAyMTguODU3QzIwNi45MzQgMjE4Ljc1NiAyMDQuMTMgMjE1Ljk0NCAyMDQuMTMgMjEyLjUzVjEwOS4wODZMMjUyLjc5MiAyMjYuMTg4QzI1My40OTIgMjI3Ljg5NSAyNTUuMDk0IDIyOSAyNTYuODk3IDIyOUMyNTguNjk5IDIyOSAyNjAuMzAxIDIyNy44OTUgMjYxLjAwMiAyMjYuMTg4TDMwOC41NjIgMTExLjY5N0wzMDkuMjYzIDIxMi41M0MzMDkuMjYzIDIxNi4wNDUgMzA2LjQ1OSAyMTguODU3IDMwMi45NTUgMjE4Ljk1N0gyOTkuMzVWMjI2LjE4OEgzMzlWMjE4Ljk1N0gzMzMuNTkzQzMzMC4xODkgMjE4Ljk1NyAzMjcuMzg1IDIxNi4wNDUgMzI3LjI4NSAyMTIuNjNMMzI2Ljk4NSAxMDIuODU5QzMyNi45ODUgOTkuMzQ0MyAzMjkuNzg4IDk2LjUzMjIgMzMzLjE5MyA5Ni40MzE4TDMzOSA5Ni4zMzE0Vjg5SDMwNS4xNTdMMjYwLjUwMSAxOTguMzY5WiIvPiYjeGE7PHBhdGggZmlsbD0iIzAwMUUyQiIgZD0iTTU3MS44NjkgMjE3LjA0NkM1NzAuNzY0IDIxNS45NCA1NzAuMTYyIDIxNC40MzEgNTcwLjE2MiAyMTIuNjJWMTU4LjY5NkM1NzAuMTYyIDE0OC40MzUgNTY3LjE1MSAxNDAuMzg2IDU2MS4xMjcgMTM0LjY1MkM1NTUuMjA1IDEyOC45MTcgNTQ2Ljk3MyAxMjYgNTM2LjczNCAxMjZDNTIyLjM3OCAxMjYgNTExLjAzNSAxMzEuODM1IDUwMy4xMDQgMTQzLjMwNEM1MDMuMDA0IDE0My41MDUgNTAyLjcwMyAxNDMuNjA2IDUwMi40MDIgMTQzLjYwNkM1MDIuMSAxNDMuNjA2IDUwMS45IDE0My40MDQgNTAxLjkgMTQzLjEwM0w0OTguMTg1IDEyOC43MTZINDkxLjk2MUw0NzYgMTM3Ljg3MVYxNDIuOTAxSDQ4MC4xMTZDNDgyLjAyMyAxNDIuOTAxIDQ4My42MjkgMTQzLjQwNCA0ODQuNzM0IDE0NC40MTFDNDg1LjgzOCAxNDUuNDE3IDQ4Ni40NCAxNDYuOTI2IDQ4Ni40NCAxNDkuMDM4VjIxMi41MTlDNDg2LjQ0IDIxNC4zMyA0ODUuODM4IDIxNS44MzkgNDg0LjczNCAyMTYuOTQ2QzQ4My42MjkgMjE4LjA1MiA0ODIuMTI0IDIxOC42NTYgNDgwLjMxNyAyMTguNjU2SDQ3Ni4zMDFWMjI2SDUxMy4wNDJWMjE4LjY1Nkg1MDkuMDI3QzUwNy4yMiAyMTguNjU2IDUwNS43MTQgMjE4LjA1MiA1MDQuNjEgMjE2Ljk0NkM1MDMuNTA2IDIxNS44MzkgNTAyLjkwMyAyMTQuMzMgNTAyLjkwMyAyMTIuNTE5VjE3MC40NjdDNTAyLjkwMyAxNjUuMTM1IDUwNC4xMDggMTU5LjgwMyA1MDYuMzE3IDE1NC41NzFDNTA4LjYyNSAxNDkuNDQxIDUxMi4wMzggMTQ1LjExNSA1MTYuNTU2IDE0MS43OTVDNTIxLjA3MyAxMzguNDc1IDUyNi40OTQgMTM2Ljg2NSA1MzIuNzE4IDEzNi44NjVDNTM5Ljc0NSAxMzYuODY1IDU0NS4wNjYgMTM5LjA3OCA1NDguMzc4IDE0My41MDVDNTUxLjY5MSAxNDcuOTMyIDU1My4zOTggMTUzLjY2NiA1NTMuMzk4IDE2MC41MDdWMjEyLjQxOUM1NTMuMzk4IDIxNC4yMjkgNTUyLjc5NSAyMTUuNzM4IDU1MS42OTEgMjE2Ljg0NUM1NTAuNTg3IDIxNy45NTIgNTQ5LjA4MSAyMTguNTU1IDU0Ny4yNzQgMjE4LjU1NUg1NDMuMjU5VjIyNS44OTlINTgwVjIxOC41NTVINTc1Ljk4NUM1NzQuNDc5IDIxOC43NTcgNTczLjA3MyAyMTguMTUzIDU3MS44NjkgMjE3LjA0NloiLz4mI3hhOzxwYXRoIGZpbGw9IiMwMDFFMkIiIGQ9Ik05MDcuNTQ2IDk3LjIxMTlDODk3LjM5IDkxLjgwNCA4ODYuMDM5IDg5IDg3My43OTIgODlIODI2Vjk2LjMxMDZIODMwLjY4QzgzMi40NzIgOTYuMzEwNiA4MzQuMDY1IDk3LjAxMTcgODM1LjY1OCA5OC42MTRDODM3LjE1MiAxMDAuMTE2IDgzNy45NDggMTAxLjgxOSA4MzcuOTQ4IDEwMy42MjFWMjExLjM3OUM4MzcuOTQ4IDIxMy4xODEgODM3LjE1MiAyMTQuODg0IDgzNS42NTggMjE2LjM4NkM4MzQuMTY1IDIxNy44ODggODMyLjQ3MiAyMTguNjg5IDgzMC42OCAyMTguNjg5SDgyNlYyMjZIODczLjc5MkM4ODYuMDM5IDIyNiA4OTcuMzkgMjIzLjE5NiA5MDcuNTQ2IDIxNy43ODhDOTE3LjcwMSAyMTIuMzggOTI1Ljk2NiAyMDQuMzY4IDkzMS45NCAxOTQuMTU0QzkzNy45MTQgMTgzLjkzOSA5NDEgMTcxLjYyMSA5NDEgMTU3LjZDOTQxIDE0My41OCA5MzcuOTE0IDEzMS4zNjIgOTMxLjk0IDEyMS4wNDdDOTI1Ljg2NiAxMTAuNjMyIDkxNy43MDEgMTAyLjcyIDkwNy41NDYgOTcuMjExOVpNOTIxLjc4NCAxNTcuNEM5MjEuNzg0IDE3MC4yMTkgOTE5LjQ5NCAxODEuMDM0IDkxNS4wMTMgMTg5Ljc0N0M5MTAuNTMzIDE5OC40NiA5MDQuNTU4IDIwNC45NjkgODk3LjE5IDIwOS4xNzZDODg5LjgyMyAyMTMuMzgyIDg4MS42NTggMjE1LjQ4NSA4NzIuODk2IDIxNS40ODVIODYzLjIzOEM4NjEuNDQ2IDIxNS40ODUgODU5Ljg1MyAyMTQuNzg0IDg1OC4yNiAyMTMuMTgxQzg1Ni43NjYgMjExLjY3OSA4NTUuOTcgMjA5Ljk3NyA4NTUuOTcgMjA4LjE3NFYxMDYuNTI2Qzg1NS45NyAxMDQuNzIzIDg1Ni42NjcgMTAzLjEyMSA4NTguMjYgMTAxLjUxOEM4NTkuNzUzIDEwMC4wMTYgODYxLjQ0NiA5OS4yMTQ5IDg2My4yMzggOTkuMjE0OUg4NzIuODk2Qzg4MS42NTggOTkuMjE0OSA4ODkuODIzIDEwMS4zMTggODk3LjE5IDEwNS41MjRDOTA0LjU1OCAxMDkuNzMgOTEwLjUzMyAxMTYuMjQgOTE1LjAxMyAxMjQuOTUyQzkxOS40OTQgMTMzLjc2NSA5MjEuNzg0IDE0NC42ODEgOTIxLjc4NCAxNTcuNFoiLz4mI3hhOzxwYXRoIGZpbGw9IiMwMDFFMkIiIGQ9Ik0xMDUzLjk3IDE2NC43MTFDMTA0OS41NSAxNTkuNjAzIDEwNDEuMDIgMTU1LjI5NyAxMDMwLjk5IDE1Mi45OTNDMTA0NC44NCAxNDYuMDgzIDEwNTEuOTYgMTM2LjM2OSAxMDUxLjk2IDEyMy44NTFDMTA1MS45NiAxMTcuMDQxIDEwNTAuMTYgMTEwLjkzMiAxMDQ2LjU0IDEwNS43MjRDMTA0Mi45MyAxMDAuNTE3IDEwMzcuODEgOTYuMzEwNiAxMDMxLjI5IDkzLjQwNjNDMTAyNC43NiA5MC41MDIxIDEwMTcuMTMgODkgMTAwOC41IDg5SDk1NC40MDJWOTYuMzEwNkg5NTguNzE4Qzk2MC41MjQgOTYuMzEwNiA5NjIuMTMgOTcuMDExNyA5NjMuNzM2IDk4LjYxNEM5NjUuMjQyIDEwMC4xMTYgOTY2LjA0NSAxMDEuODE5IDk2Ni4wNDUgMTAzLjYyMVYyMTEuMzc5Qzk2Ni4wNDUgMjEzLjE4MSA5NjUuMjQyIDIxNC44ODQgOTYzLjczNiAyMTYuMzg2Qzk2Mi4yMzEgMjE3Ljg4OCA5NjAuNTI0IDIxOC42ODkgOTU4LjcxOCAyMTguNjg5SDk1NFYyMjZIMTAxMi43MkMxMDIxLjY1IDIyNiAxMDI5Ljk4IDIyNC40OTggMTAzNy41MSAyMjEuNDkzQzEwNDUuMDQgMjE4LjQ4OSAxMDUxLjA2IDIxNC4wODMgMTA1NS4zOCAyMDguMjc0QzEwNTkuNzkgMjAyLjQ2NiAxMDYyIDE5NS4zNTUgMTA2MiAxODcuMTQzQzEwNjEuOSAxNzguMzMgMTA1OS4yOSAxNzAuODE5IDEwNTMuOTcgMTY0LjcxMVpNOTg2LjYyMSAyMTMuMjgxQzk4NS4xMTUgMjExLjc3OSA5ODQuMzEyIDIxMC4wNzcgOTg0LjMxMiAyMDguMjc0VjE1OS45MDNIMTAxMi4yMkMxMDIyLjA1IDE1OS45MDMgMTAyOS41OCAxNjIuNDA3IDEwMzQuOCAxNjcuNDE0QzEwNDAuMDIgMTcyLjQyMiAxMDQyLjYzIDE3OC45MzEgMTA0Mi42MyAxODYuOTQzQzEwNDIuNjMgMTkxLjc1IDEwNDEuNDIgMTk2LjQ1NyAxMDM5LjIyIDIwMC43NjNDMTAzNi45MSAyMDUuMTcgMTAzMy40OSAyMDguNjc1IDEwMjguODggMjExLjM3OUMxMDI0LjM2IDIxNC4wODMgMTAxOC43NCAyMTUuNDg1IDEwMTIuMjIgMjE1LjQ4NUg5OTEuNjM5Qzk4OS44MzMgMjE1LjQ4NSA5ODguMjI3IDIxNC43ODQgOTg2LjYyMSAyMTMuMjgxWk05ODQuNDEzIDE0OS41ODhWMTA2LjYyNkM5ODQuNDEzIDEwNC44MjMgOTg1LjExNSAxMDMuMjIxIDk4Ni43MjEgMTAxLjYxOEM5ODguMjI3IDEwMC4xMTYgOTg5LjkzMyA5OS4zMTUgOTkxLjc0IDk5LjMxNUgxMDA0Ljk5QzEwMTQuNTIgOTkuMzE1IDEwMjEuNTUgMTAxLjcxOSAxMDI1Ljk3IDEwNi4zMjVDMTAzMC4zOCAxMTEuMDMyIDEwMzIuNTkgMTE3LjA0MSAxMDMyLjU5IDEyNC40NTJDMTAzMi41OSAxMzIuMDYzIDEwMzAuNDggMTM4LjE3MiAxMDI2LjM3IDE0Mi43NzhDMTAyMi4yNSAxNDcuMjg1IDEwMTYuMDMgMTQ5LjU4OCAxMDA3LjggMTQ5LjU4OEg5ODQuNDEzWiIvPiYjeGE7PHBhdGggZmlsbD0iIzAwMUUyQiIgZD0iTTQzMS45OTkgMTMyLjM4OEM0MjQuMzI5IDEyOC4xOTYgNDE1Ljc2MyAxMjYgNDA2LjUgMTI2QzM5Ny4yMzcgMTI2IDM4OC41NzEgMTI4LjA5NiAzODEuMDAxIDEzMi4zODhDMzczLjMzMSAxMzYuNTc5IDM2Ny4yNTUgMTQyLjY2NyAzNjIuNzczIDE1MC4zNTJDMzU4LjI5MSAxNTguMDM3IDM1NiAxNjcuMDIgMzU2IDE3N0MzNTYgMTg2Ljk4IDM1OC4yOTEgMTk1Ljk2MyAzNjIuNzczIDIwMy42NDhDMzY3LjI1NSAyMTEuMzMzIDM3My4zMzEgMjE3LjQyMSAzODEuMDAxIDIyMS42MTNDMzg4LjY3MSAyMjUuODA0IDM5Ny4yMzcgMjI4IDQwNi41IDIyOEM0MTUuNzYzIDIyOCA0MjQuNDI5IDIyNS45MDQgNDMxLjk5OSAyMjEuNjEzQzQzOS42NjkgMjE3LjQyMSA0NDUuNzQ1IDIxMS4zMzMgNDUwLjIyNyAyMDMuNjQ4QzQ1NC43MDkgMTk1Ljk2MyA0NTcgMTg2Ljk4IDQ1NyAxNzdDNDU3IDE2Ny4wMiA0NTQuNzA5IDE1OC4wMzcgNDUwLjIyNyAxNTAuMzUyQzQ0NS43NDUgMTQyLjY2NyA0MzkuNjY5IDEzNi41NzkgNDMxLjk5OSAxMzIuMzg4Wk00MzkuMzcgMTc3QzQzOS4zNyAxODkuMjc2IDQzNi4zODIgMTk5LjI1NiA0MzAuNDA1IDIwNi40NDJDNDI0LjUyOSAyMTMuNjI4IDQxNi40NjEgMjE3LjMyMSA0MDYuNSAyMTcuMzIxQzM5Ni41NCAyMTcuMzIxIDM4OC40NzEgMjEzLjYyOCAzODIuNTk1IDIwNi40NDJDMzc2LjYxOCAxOTkuMjU2IDM3My42MyAxODkuMjc2IDM3My42MyAxNzdDMzczLjYzIDE2NC43MjQgMzc2LjYxOCAxNTQuNzQ0IDM4Mi41OTUgMTQ3LjU1OEMzODguNDcxIDE0MC4zNzIgMzk2LjU0IDEzNi42NzkgNDA2LjUgMTM2LjY3OUM0MTYuNDYxIDEzNi42NzkgNDI0LjUyOSAxNDAuMzcyIDQzMC40MDUgMTQ3LjU1OEM0MzYuMzgyIDE1NC43NDQgNDM5LjM3IDE2NC43MjQgNDM5LjM3IDE3N1oiLz4mI3hhOzxwYXRoIGZpbGw9IiMwMDFFMkIiIGQ9Ik03ODQuOTk5IDEzMi4zODhDNzc3LjMyOSAxMjguMTk2IDc2OC43NjMgMTI2IDc1OS41IDEyNkM3NTAuMjM3IDEyNiA3NDEuNTcxIDEyOC4wOTYgNzM0LjAwMSAxMzIuMzg4QzcyNi4zMzEgMTM2LjU3OSA3MjAuMjU1IDE0Mi42NjcgNzE1Ljc3MyAxNTAuMzUyQzcxMS4yOTEgMTU4LjAzNyA3MDkgMTY3LjAyIDcwOSAxNzdDNzA5IDE4Ni45OCA3MTEuMjkxIDE5NS45NjMgNzE1Ljc3MyAyMDMuNjQ4QzcyMC4yNTUgMjExLjMzMyA3MjYuMzMxIDIxNy40MjEgNzM0LjAwMSAyMjEuNjEzQzc0MS42NzEgMjI1LjgwNCA3NTAuMjM3IDIyOCA3NTkuNSAyMjhDNzY4Ljc2MyAyMjggNzc3LjQyOSAyMjUuOTA0IDc4NC45OTkgMjIxLjYxM0M3OTIuNjY5IDIxNy40MjEgNzk4Ljc0NSAyMTEuMzMzIDgwMy4yMjcgMjAzLjY0OEM4MDcuNzA5IDE5NS45NjMgODEwIDE4Ni45OCA4MTAgMTc3QzgxMCAxNjcuMDIgODA3LjcwOSAxNTguMDM3IDgwMy4yMjcgMTUwLjM1MkM3OTguNzQ1IDE0Mi42NjcgNzkyLjU2OSAxMzYuNTc5IDc4NC45OTkgMTMyLjM4OFpNNzkyLjM3IDE3N0M3OTIuMzcgMTg5LjI3NiA3ODkuMzgxIDE5OS4yNTYgNzgzLjQwNSAyMDYuNDQyQzc3Ny41MjggMjEzLjYyOCA3NjkuNDYgMjE3LjMyMSA3NTkuNSAyMTcuMzIxQzc0OS41MzkgMjE3LjMyMSA3NDEuNDcxIDIxMy42MjggNzM1LjU5NSAyMDYuNDQyQzcyOS42MTggMTk5LjI1NiA3MjYuNjMgMTg5LjI3NiA3MjYuNjMgMTc3QzcyNi42MyAxNjQuNjI0IDcyOS42MTggMTU0Ljc0NCA3MzUuNTk1IDE0Ny41NThDNzQxLjQ3MSAxNDAuMzcyIDc0OS41MzkgMTM2LjY3OSA3NTkuNSAxMzYuNjc5Qzc2OS40NiAxMzYuNjc5IDc3Ny41MjggMTQwLjM3MiA3ODMuNDA1IDE0Ny41NThDNzg5LjI4MiAxNTQuNzQ0IDc5Mi4zNyAxNjQuNzI0IDc5Mi4zNyAxNzdaIi8+JiN4YTs8cGF0aCBmaWxsPSIjMDAxRTJCIiBkPSJNNjQyLjY0IDEyNkM2MzQuNjE0IDEyNiA2MjcuMjkyIDEyNy43MDQgNjIwLjY3MSAxMzEuMTEzQzYxNC4wNSAxMzQuNTIyIDYwOC44MzQgMTM5LjEzNSA2MDUuMTIyIDE0NS4wNUM2MDEuNDExIDE1MC44NjUgNTk5LjUwNSAxNTcuMzgzIDU5OS41MDUgMTY0LjMwMUM1OTkuNTA1IDE3MC41MTcgNjAwLjkwOSAxNzYuMjMyIDYwMy44MTggMTgxLjM0NkM2MDYuNjI3IDE4Ni4yNTkgNjEwLjQzOSAxOTAuMzY5IDYxNS4yNTQgMTkzLjc3OEw2MDAuOTA5IDIxMy4yM0M1OTkuMTAzIDIxNS42MzYgNTk4LjkwMyAyMTguODQ0IDYwMC4yMDcgMjIxLjQ1MUM2MDEuNjExIDIyNC4xNTggNjA0LjIxOSAyMjUuNzYzIDYwNy4yMjkgMjI1Ljc2M0g2MTEuMzQyQzYwNy4zMjkgMjI4LjQ3IDYwNC4xMTkgMjMxLjY3OCA2MDEuOTEyIDIzNS40ODhDNTk5LjMwNCAyMzkuNzk5IDU5OCAyNDQuMzExIDU5OCAyNDguOTIzQzU5OCAyNTcuNTQ2IDYwMS44MTIgMjY0LjY2NSA2MDkuMzM1IDI2OS45NzlDNjE2Ljc1OSAyNzUuMjkzIDYyNy4xOTEgMjc4IDY0MC4zMzIgMjc4QzY0OS40NjEgMjc4IDY1OC4xODggMjc2LjQ5NiA2NjYuMTEzIDI3My41ODhDNjc0LjEzOCAyNzAuNjgxIDY4MC42NTggMjY2LjM2OSA2ODUuNDczIDI2MC43NTVDNjkwLjM4OSAyNTUuMTQgNjkyLjg5NyAyNDguMzIyIDY5Mi44OTcgMjQwLjUwMUM2OTIuODk3IDIzMi4yOCA2ODkuODg3IDIyNi40NjQgNjgyLjg2NSAyMjAuODVDNjc2Ljg0NyAyMTYuMTM3IDY2Ny40MTcgMjEzLjYzMSA2NTUuNjggMjEzLjYzMUg2MTUuNTU1QzYxNS40NTUgMjEzLjYzMSA2MTUuMzU0IDIxMy41MyA2MTUuMzU0IDIxMy41M0M2MTUuMzU0IDIxMy41MyA2MTUuMjU0IDIxMy4zMyA2MTUuMzU0IDIxMy4yM0w2MjUuNzg3IDE5OS4xOTNDNjI4LjU5NiAyMDAuNDk2IDYzMS4yMDQgMjAxLjI5OCA2MzMuNTExIDIwMS43OTlDNjM1LjkxOCAyMDIuMzAxIDYzOC42MjcgMjAyLjUwMSA2NDEuNjM2IDIwMi41MDFDNjUwLjA2MyAyMDIuNTAxIDY1Ny42ODcgMjAwLjc5NyA2NjQuMzA3IDE5Ny4zODhDNjcwLjkyOCAxOTMuOTc5IDY3Ni4yNDUgMTg5LjM2NyA2ODAuMDU3IDE4My40NTFDNjgzLjg2OCAxNzcuNjM2IDY4NS43NzQgMTcxLjExOSA2ODUuNzc0IDE2NC4yMDFDNjg1Ljc3NCAxNTYuNzgxIDY4Mi4xNjMgMTQzLjI0NSA2NzIuMzMyIDEzNi4zMjdDNjcyLjMzMiAxMzYuMjI3IDY3Mi40MzMgMTM2LjIyNyA2NzIuNDMzIDEzNi4yMjdMNjk0IDEzOC42MzNWMTI4LjcwN0g2NTkuNDkyQzY1NC4wNzUgMTI3LjAwMyA2NDguNDU4IDEyNiA2NDIuNjQgMTI2Wk02NTQuNjc3IDE4OC43NjVDNjUwLjg2NSAxOTAuNzcgNjQ2Ljc1MiAxOTEuODczIDY0Mi42NCAxOTEuODczQzYzNS45MTkgMTkxLjg3MyA2MzAgMTg5LjQ2NyA2MjQuOTg0IDE4NC43NTVDNjE5Ljk2OSAxODAuMDQyIDYxNy40NjEgMTczLjEyNCA2MTcuNDYxIDE2NC4zMDFDNjE3LjQ2MSAxNTUuNDc4IDYxOS45NjkgMTQ4LjU1OSA2MjQuOTg0IDE0My44NDdDNjMwIDEzOS4xMzUgNjM1LjkxOSAxMzYuNzI4IDY0Mi42NCAxMzYuNzI4QzY0Ni44NTMgMTM2LjcyOCA2NTAuODY1IDEzNy43MzEgNjU0LjY3NyAxMzkuODM2QzY1OC40ODkgMTQxLjg0MiA2NjEuNTk5IDE0NC45NSA2NjQuMTA3IDE0OS4wNjFDNjY2LjUxNCAxNTMuMTcyIDY2Ny44MTggMTU4LjI4NSA2NjcuODE4IDE2NC4zMDFDNjY3LjgxOCAxNzAuNDE3IDY2Ni42MTQgMTc1LjUzIDY2NC4xMDcgMTc5LjU0MUM2NjEuNjk5IDE4My42NTIgNjU4LjQ4OSAxODYuNzYgNjU0LjY3NyAxODguNzY1Wk02MjcuNDkyIDIyNS42NjJINjU0LjY3N0M2NjIuMjAxIDIyNS42NjIgNjY3LjAxNiAyMjcuMTY2IDY3MC4yMjYgMjMwLjM3NUM2NzMuNDM2IDIzMy41ODMgNjc1LjA0MSAyMzcuODk0IDY3NS4wNDEgMjQyLjkwOEM2NzUuMDQxIDI1MC4yMjcgNjcyLjEzMiAyNTYuMjQzIDY2Ni4zMTQgMjYwLjc1NUM2NjAuNDk1IDI2NS4yNjcgNjUyLjY3MSAyNjcuNTczIDY0My4wNDEgMjY3LjU3M0M2MzQuNjE0IDI2Ny41NzMgNjI3LjU5MiAyNjUuNjY4IDYyMi40NzYgMjYyLjA1OEM2MTcuMzYgMjU4LjQ0OSA2MTQuNzUyIDI1Mi45MzQgNjE0Ljc1MiAyNDUuOTE2QzYxNC43NTIgMjQxLjUwNCA2MTUuOTU2IDIzNy4zOTMgNjE4LjM2NCAyMzMuNzg0QzYyMC43NzEgMjMwLjE3NCA2MjMuNjggMjI3LjU2NyA2MjcuNDkyIDIyNS42NjJaIi8+JiN4YTs8cGF0aCBmaWxsPSIjMDAxRTJCIiBkPSJNMTA4Mi4zNSAyMjQuMzI3QzEwODAuMzcgMjIzLjI0NCAxMDc4Ljg4IDIyMS42NjkgMTA3Ny42OSAyMTkuNzk5QzEwNzYuNiAyMTcuODMxIDEwNzYgMjE1Ljc2NCAxMDc2IDIxMy41QzEwNzYgMjExLjIzNiAxMDc2LjYgMjA5LjA3MSAxMDc3LjY5IDIwNy4yMDFDMTA3OC43OCAyMDUuMjMyIDEwODAuMzcgMjAzLjc1NiAxMDgyLjM1IDIwMi42NzNDMTA4NC4zNCAyMDEuNTkxIDEwODYuNTIgMjAxIDEwODkgMjAxQzEwOTEuNDggMjAxIDEwOTMuNjYgMjAxLjU5MSAxMDk1LjY1IDIwMi42NzNDMTA5Ny42MyAyMDMuNzU2IDEwOTkuMTIgMjA1LjMzMSAxMTAwLjMxIDIwNy4yMDFDMTEwMS40IDIwOS4xNjkgMTEwMiAyMTEuMjM2IDExMDIgMjEzLjVDMTEwMiAyMTUuNzY0IDExMDEuNCAyMTcuOTI5IDExMDAuMzEgMjE5Ljc5OUMxMDk5LjIyIDIyMS43NjggMTA5Ny42MyAyMjMuMjQ0IDEwOTUuNjUgMjI0LjMyN0MxMDkzLjY2IDIyNS40MDkgMTA5MS40OCAyMjYgMTA4OSAyMjZDMTA4Ni42MiAyMjYgMTA4NC4zNCAyMjUuNTA4IDEwODIuMzUgMjI0LjMyN1pNMTA5NC41NiAyMjIuOTQ5QzEwOTYuMjQgMjIyLjA2MyAxMDk3LjQ0IDIyMC42ODUgMTA5OC40MyAyMTkuMTFDMTA5OS4zMiAyMTcuNDM3IDEwOTkuODIgMjE1LjU2NyAxMDk5LjgyIDIxMy41QzEwOTkuODIgMjExLjQzMyAxMDk5LjMyIDIwOS41NjMgMTA5OC40MyAyMDcuODlDMTA5Ny41MyAyMDYuMjE3IDEwOTYuMjQgMjA0LjkzNyAxMDk0LjU2IDIwNC4wNTFDMTA5Mi44NyAyMDMuMTY1IDEwOTEuMDggMjAyLjY3MyAxMDg5IDIwMi42NzNDMTA4Ni45MiAyMDIuNjczIDEwODUuMTMgMjAzLjE2NSAxMDgzLjQ0IDIwNC4wNTFDMTA4MS43NiAyMDQuOTM3IDEwODAuNTYgMjA2LjMxNSAxMDc5LjU3IDIwNy44OUMxMDc4LjY4IDIwOS41NjMgMTA3OC4xOCAyMTEuNDMzIDEwNzguMTggMjEzLjVDMTA3OC4xOCAyMTUuNTY3IDEwNzguNjggMjE3LjQzNyAxMDc5LjU3IDIxOS4xMUMxMDgwLjQ3IDIyMC43ODMgMTA4MS43NiAyMjIuMDYzIDEwODMuNDQgMjIyLjk0OUMxMDg1LjEzIDIyMy44MzUgMTA4Ni45MiAyMjQuMzI3IDEwODkgMjI0LjMyN0MxMDkxLjA4IDIyNC4zMjcgMTA5Mi45NyAyMjMuODM1IDEwOTQuNTYgMjIyLjk0OVpNMTA4My42NCAyMTkuNTA0VjIxOC42MThMMTA4My44NCAyMTguNTJIMTA4NC40NEMxMDg0LjYzIDIxOC41MiAxMDg0LjgzIDIxOC40MjEgMTA4NC45MyAyMTguMzIzQzEwODUuMTMgMjE4LjEyNiAxMDg1LjEzIDIxOC4wMjggMTA4NS4xMyAyMTcuODMxVjIwOC42NzdDMTA4NS4xMyAyMDguNDggMTA4NS4wMyAyMDguMjg0IDEwODQuOTMgMjA4LjE4NUMxMDg0LjczIDIwNy45ODggMTA4NC42MyAyMDcuOTg4IDEwODQuNDQgMjA3Ljk4OEgxMDgzLjg0TDEwODMuNjQgMjA3Ljg5VjIwNy4wMDRMMTA4My44NCAyMDYuOTA2SDEwODlDMTA5MC40OSAyMDYuOTA2IDEwOTEuNTggMjA3LjIwMSAxMDkyLjQ3IDIwNy44OUMxMDkzLjM3IDIwOC41NzkgMTA5My43NiAyMDkuNDY1IDEwOTMuNzYgMjEwLjY0NkMxMDkzLjc2IDIxMS41MzIgMTA5My40NyAyMTIuNDE3IDEwOTIuNzcgMjEzLjAwOEMxMDkyLjA4IDIxMy42OTcgMTA5MS4yOCAyMTQuMDkxIDEwOTAuMjkgMjE0LjE4OUwxMDkxLjQ4IDIxNC41ODNMMTA5My43NiAyMTguMjI0QzEwOTMuOTYgMjE4LjUyIDEwOTQuMTYgMjE4LjYxOCAxMDk0LjQ2IDIxOC42MThIMTA5NS4wNUwxMDk1LjE1IDIxOC43MTdWMjE5LjYwMkwxMDk1LjA1IDIxOS43MDFIMTA5MS45OEwxMDkxLjc4IDIxOS42MDJMMTA4OC42IDIxNC4yODdIMTA4Ny44MVYyMTcuODMxQzEwODcuODEgMjE4LjAyOCAxMDg3LjkxIDIxOC4yMjQgMTA4OC4wMSAyMTguMzIzQzEwODguMjEgMjE4LjUyIDEwODguMzEgMjE4LjUyIDEwODguNSAyMTguNTJIMTA4OS4xTDEwODkuMyAyMTguNjE4VjIxOS41MDRMMTA4OS4xIDIxOS42MDJIMTA4My44NEwxMDgzLjY0IDIxOS41MDRaTTEwODguNyAyMTMuMDA4QzEwODkuNSAyMTMuMDA4IDEwOTAuMTkgMjEyLjgxMSAxMDkwLjU5IDIxMi4zMTlDMTA5MC45OCAyMTEuOTI1IDEwOTEuMjggMjExLjIzNiAxMDkxLjI4IDIxMC40NDlDMTA5MS4yOCAyMDkuNjYxIDEwOTEuMDggMjA5LjA3MSAxMDkwLjY5IDIwOC41NzlDMTA5MC4yOSAyMDguMDg3IDEwODkuNjkgMjA3Ljg5IDEwODkgMjA3Ljg5SDEwODguNkMxMDg4LjQgMjA3Ljg5IDEwODguMjEgMjA3Ljk4OCAxMDg4LjExIDIwOC4wODdDMTA4Ny45MSAyMDguMjgzIDEwODcuOTEgMjA4LjM4MiAxMDg3LjkxIDIwOC41NzlWMjEzLjAwOEgxMDg4LjdaIi8+JiN4YTs8L3N2Zz4=;" vertex="1" parent="701YrJpAbFropww0fSCw-40">
          <mxGeometry x="10.540000000000077" y="47.5" width="118.92" height="30" as="geometry" />
        </mxCell>
        <mxCell id="701YrJpAbFropww0fSCw-39" value="" style="shape=image;html=1;verticalAlign=top;verticalLabelPosition=bottom;labelBackgroundColor=#ffffff;imageAspect=0;aspect=fixed;image=https://cdn1.iconfinder.com/data/icons/unicons-line-vol-3/24/docker-128.png" vertex="1" parent="701YrJpAbFropww0fSCw-40">
          <mxGeometry x="120" width="47.5" height="47.5" as="geometry" />
        </mxCell>
        <mxCell id="701YrJpAbFropww0fSCw-42" value="" style="group" vertex="1" connectable="0" parent="1">
          <mxGeometry x="590" y="170" width="167.5" height="97.5" as="geometry" />
        </mxCell>
        <mxCell id="701YrJpAbFropww0fSCw-43" value="Cache" style="rounded=1;whiteSpace=wrap;html=1;labelPosition=center;verticalLabelPosition=top;align=center;verticalAlign=bottom;" vertex="1" parent="701YrJpAbFropww0fSCw-42">
          <mxGeometry y="27.5" width="140" height="70" as="geometry" />
        </mxCell>
        <mxCell id="701YrJpAbFropww0fSCw-45" value="" style="shape=image;html=1;verticalAlign=top;verticalLabelPosition=bottom;labelBackgroundColor=#ffffff;imageAspect=0;aspect=fixed;image=https://cdn1.iconfinder.com/data/icons/unicons-line-vol-3/24/docker-128.png" vertex="1" parent="701YrJpAbFropww0fSCw-42">
          <mxGeometry x="120" width="47.5" height="47.5" as="geometry" />
        </mxCell>
        <mxCell id="701YrJpAbFropww0fSCw-50" value="" style="image;sketch=0;aspect=fixed;html=1;points=[];align=center;fontSize=12;image=img/lib/mscae/Cache_Redis_Product.svg;" vertex="1" parent="701YrJpAbFropww0fSCw-42">
          <mxGeometry x="45" y="41.5" width="50" height="42" as="geometry" />
        </mxCell>
        <mxCell id="701YrJpAbFropww0fSCw-46" value="" style="group" vertex="1" connectable="0" parent="1">
          <mxGeometry x="590" y="280" width="167.5" height="108" as="geometry" />
        </mxCell>
        <mxCell id="701YrJpAbFropww0fSCw-47" value="Object Storage" style="rounded=1;whiteSpace=wrap;html=1;labelPosition=center;verticalLabelPosition=top;align=center;verticalAlign=bottom;" vertex="1" parent="701YrJpAbFropww0fSCw-46">
          <mxGeometry y="27.5" width="140" height="70" as="geometry" />
        </mxCell>
        <mxCell id="701YrJpAbFropww0fSCw-49" value="" style="shape=image;html=1;verticalAlign=top;verticalLabelPosition=bottom;labelBackgroundColor=#ffffff;imageAspect=0;aspect=fixed;image=https://cdn1.iconfinder.com/data/icons/unicons-line-vol-3/24/docker-128.png" vertex="1" parent="701YrJpAbFropww0fSCw-46">
          <mxGeometry x="120" width="47.5" height="47.5" as="geometry" />
        </mxCell>
        <mxCell id="701YrJpAbFropww0fSCw-52" value="" style="shape=image;verticalLabelPosition=bottom;labelBackgroundColor=default;verticalAlign=top;aspect=fixed;imageAspect=0;image=data:image/png,iVBORw0KGgoAAAANSUhEUgAAARgAAAEYCAYAAACHjumMAAAgAElEQVR4Xu3dC3wcVb0H8HNmNkkpTVMo8pILbXlaEMWC0oIQmuzsbkqKqBERFUQBAVHuFdGLXAm+US4qIPjAK/KGgJSWZndmtxjFPlBAEUHLsygvgUIehSab3Tn3f5IU0z9Ndmd3ZzO7+/t+Ptud/M+mSXZ3fnvmdY4UAAA+kbwAAFAqCBgA8A0CBgB8g4ABAN8gYADANwgYAPANAgYAfIOAAQDfIGAAwDcIGADwDQIGAHyDgAEA3yBgAMA3CBgA8A0CBgB8g4CBrXR2dhpr1649Wil5hJTiYKXEfCpvRzdFt5fp9gi9bR5QKpNKJpOPb/3dAFtDwMCIlpaWXUKh+rNdV32SgmUv3r4Nih53D92uSiQSd+qv+QMAEDA1brTHct/HlVKX0ZezeXue7lUq+2n0aIBDwNSwcDi8r5TmTbR4KG8rwCbDECdTb+bXvAFql8ELUBssK/ZhKY0/iNKEizbDdcVt9P+exBugdqEHU2Pa29unDw2lr6CX/lTeViIZKdUHbNteyRug9qAHU0O+bTUfMDg4/Ecfw0ULKWX8orm5fSfeALUHAVMjXgvPeffZ4pnfLJCvZ3hb6ald6uqGf8yrUHuwiVQDXmvd6xDDMJK0ONsV4oXTxT4NfcLckT+u9NxDHcd5gFehdqAHU+V6rb0XULikxNghaHrBd/ue3PCkLMt5K8aZvAK1BQFTxfqtvRdJ4d5Di1v1VnZUmcM+I/71u/E1n5wYi8Vm8iLUDgRMlepvnXekEm6CFre5gluid9HB4vW/8fo2PEGdnVuVErfRch9vzGF6Nluyw+BQgRAwVag/Mvf9ylDdtNjI28apu0A829Qos/28QZNSvEKh8jHHSeznOPZHk8nECaYp96Umfe5M3pRyETA1DAFTZQbCc46mYMgVLiNMIXb/jnrmUV6n7/9jNptZQKFys/5ySz0ej78spdKHuPPefyOlfCevQe1AwFSRvtY5kayUcVqcwdsmsosYPvwk8dKb+2MoXK7ftKnx6FQq9Y/xj9vCtu1H6DHbbNsW6gk18BrUDgRMleiz9ooJQy6To0MrePIB8dp79xdvPEzB8SnqtXxy7dquzfwx41Ev5jVemwj9nzgVooYhYKpAf2TOcfRSLqPFabwtP+rBTvn8iRQu1/IWLhKJ7EYRcyCvT4R6MMO8BrUDAVPh+q15xyolb6XFet6Wh9eVVF+Z2bThqNn2E4/wRq65uZkCTP6SFut420Tod8v5/0L1QsBUsN7w3A4llB4eoZD9HHdnXTl/lr3hEtklsryRC4fDu9fXN/TQJk+Et+XwIC9A7UDAVKhea84JtPmhx3LJuzcx5kUhxclNztPtO6aeymtnbTgcO0JK8wHqvbyPt+UwnE6H/siLUDsQMBWoLzzvRCnkDbQY4m2ToM6OuF7I4QOb7Kev440TsazY6VIqfTbwrrwtFwrAZT09K17hdagd2MNfYfqteadSUvxcePtweEIJ44xZzpM6KPLS0dFR39fXfyW9RU7jbfmiYFps2/ZveB1qBwKmgvRG5p4mlfiJyD9chqWSlzWGjItk/Ikh3jgRfaRIKXk7LS7ibflSSvQkk4nFepG3Qe3I940KU6w3POcMb+Gi1hjSPGRm8qmveAmX1tbY4RQu94siwkXoo1PK/LRAuNS8PN+sMJV6rXlnSimvFvm9Xv3UfTh35qIN72/M49DzeJYVO9UwVA8t7s7bvFD081OplU/xOtQebCIFXH9k7hdpc+NSXp/A3RlhnDXbefKfvGEyzc3Nobq6hm9SiH2ZtxXgvx0n8V1ehNqEgAmw/vCc85WUl/D6NuhDz1/2cnRoi1gs9rZMRt0mpWjmbR65dDuPwuUHvAFqFwImoHojc74slczVE9CHnm8QxvC5Tfazr/LGXCKRyLuUknpWxrm8zaMB6mWdnEyOzPAI8CYETAD1WfM6KTsu4nXmcVe6Z+xgP1PQYWDLip1AP+P/aHE6b/NGPm6a4gPxePwtwz4AIGACps+a+w26u5DXxyno0PMWHR0dZm9v/7eklOeL4l//7nR62kk9Pct6eQOAVuwbDEpE0WvRH5l7KS38F297kxS/N7Lu6Y2pZ/IZ6vIt9Pi4rquup82ZpbzNI0W+d8QRCy/o7OzU+14AtgkBEwAj4WLN/SEtfp63jemjVfqimUdsuEJ2juxM9aylpW0/03TvosUDeJtHm6RUp9i2fQdvAOAQMFNsLFyupMWzeNuYgg49jxeJRI5TSl4v8hhGM4cnxqaF9XR+DdQuBMwUUh3C7O+b+wtaPJm3kRcofD4/y3lan7JfKBmJxM6nzZlvi/xO0puQlMIOhcwTV65cmfdodgAImCkyFi7X0uLHeVMxh5630JPcDw4OX0/B8EHe5pGSUn5/5swZF3R1deUcNwZgPATMFFAdB9b39b5+M624fOUv6tDzFvpiRdeVd1G4HMbbPBqk3/EM2457PoEPQEPAlJmK7dPQn83qIS6PG1cu6tDzeJZlHaSUcTeFy168zaNn6f85Ppns1hc+AhQEAVNGz7fvPn37oQY9OHd4XHm1YWZPb4z/o+gT1cLhmCWl0jMwNvE2j+7NZoc7Vq1a9S/eAOBFUTv+IH8vWrtsP2OofoX4d7joQ8/nzlz09FGlCJexkedWiuLD5WcbN77cgnCBUkAPpgxebZ3XZBpuNz3dW8ZYuTtjmmfOjj/x7FYPLIA+M7evb0BfYHgOb/NoUClxZj5TlwDkCwHjs9ea58wy6qWehF4PmF2KQ89vGhvW8jp6GU/gbR49T53ZDzpO9328AaAYCBgf9S7ZcweZNm16lg+lJ/rnw6b5Jeq1bHOyea8sy9peSuOOAqYR4dbQptWHbdt+gTcAFAsB45NNLXN3yZgiSU/wNNdQp++Q2NDDH1Oo5ub2nerqhruLPwytft7UNPNzXV1dad4CUAoIGJ/0WXOXCyX+OHPW9Etk1yMlW4H1BGhSmnqT6528zYOslPKrth3PZzArgIIhYCpIa+uSdxhG1qbF/+BtHmyizaqTksnEct4AUGoImAoRiUT2UUreKwqYAG2c54VwlzqO8wBvAPADzoOpALFYbA8Kl6QoLlweonA5HOEC5YSACTg9KHc2q3S4zOFt+VPLKFyOoHApeMgHgEIgYAKss7PToHC5RRQ3SNQVixYt/BCFy+u8YTx9gSTdDuR1gGJgH0yARSKxrymlLub1fNH3fi2ZtPUYvzmFw7GjpRyZdO1B+r7r6utD12HsFygWAiagxlb4VbRo8rY8uPS9Z9u2raeazcu4gNniDYqoG13XvCKV6n54XB0gb9hECiB9CQCt7NeIwsIlTZ8bH/MSLhOYTv/PaYbh/sWyosloNLqQPwAgFwRMAPX1DeiZBfbh9Txsos7LsY4T1+PNlFKr64o1OmjC4bZDeSPARBAwAaN3ttLdBbyehwHXlWHHcfQRJ7+0Sun+wbIit8Risb15IwCHgAkY1zV0uHgd/X+zUrI9lYqv4w0+kPrq7WxW/ZV6NBfqzTn+AIAtEDABsnTp0kYp1bZmGJiUnqcomYz/ltd9No1u3+jtHfhTa2v0SN4IoCFgAmRoaEiHi8fei/qhbdt6mMwpIaWYbxjid+Fw9Dp9lTdvh9qGgAkQ2sw5jddyWG+axld4cQpICppP1Ndn/hqJRJbwRqhdCJiAaG1t3ZPuDub1ySglzo7H40XNQlBaahcKyRWWFf3+ggUL6ngr1B4ETECYZp3XkenuSSYT+kS8oNEnb543e/bb1rS2LpnHG6G2IGACQ42fyiQnKdVlvBYwhxpG9v5wOHo8b4DagYAJCNrcOYTXJrFxaGhIDzwVdDtIKe6IRGKX6As3eSNUP7zoAaCnHqG7vGdipDDq7unpyfB6QEml1PmrV6/r0vNl80aobgiYABgYGNBDYOa9U5R6BRU3nSv9zh8cGhr+TVtbWzGDZkGFQcAEgOu6u/PaZFxXrOe1CvHe4WF3HcadqR0ImAokpdzEa5WCejJ7KSVXU8gcw9ug+iBgAsB1TZfXJiNlVvFahWmikFlJIRPlDVBdEDABEAqpLK9Nzixm2pJSuZR6I6/wogfbUcgss6xYO2+A6oGACQDDMDwNxq2UO5/Xys11xV2mabxTKbGSt3nQQH/N7dFo9IO8AaoDAiYAuru7X6S7Pl6fiJTyWF6bCvr3TiYT7VKqM+nLQd6ep3oKq1stK/pR3gCVDwETHF6ODL1HT8TGi1NE6eE5KWSOoOWneGOeQnS7gTaXPswboLIhYAJCKfkgr02GHn8Gr00lCpkH0+lpC2jxLt6WJ5P+qhvC4WgLb4DKhYAJCMNwU7yWwzlBu5iwp2dZr+MkjtfTpdCXhRzpapBS3BmNRg/jDVCZEDABkc1mdcB42Y/RYBjZS3kxANToXEzyRFrezBvz0KgvhbAsq5jJ5iAgEDABkUql+mjFWs7rORwfDke+wItBMDqzgaFPptM7sD2h52En+t5kW1tb3tdnQTAhYILlZ7yQi5Ty0qDut3Cc7vtCIeNwWvw7b8vDHpmMu7y5uXkGb4DKgYAJkLEBpLxeyBiSUt0eDsf0UZzA6e7ufkYI92jql/yZt+Xh4Pr6aTdgqIfKhRcuYCgsOnktNzmLvs+hnkwbbwkCx3FeSqe305tLa3hbHo5bs2bdN3kRKgMCJmBs29Znxjq8nofpUopllhU9izcEgT7CRD0Zixa9Hi3TvmJZsZN4EYIPARNA2axxjhiZfN4zPabMjylklrW0tMzmjVONejKvm+bIWcheA1TSJtY1ltX2Pt4AwYaACaBVq7ofo3WqmOlIjjPNuodok2kpb5hqehaEhoY6PU7vat6WwzTqAd0Ri8XexhsguBAwAeU48Stpk6eL1z14O33/XdSbWRWNRj1Nh+K3FStWvEE9mTYK0Qd4Ww5vz2bVLWNDjEIFQMAEl2poqP803T/CGzxa7LrigXA4djUFzRzeOFWoJ9NvmiImvB/CXtzXt6mY3h2UEQImwJYvXz5AmwW0Esp/8DaP9KHsz1LQPG5ZsRsjkci7+AOmAoXMy9ST0dO1eBqugrL3YgrMo3kVggcBE3CO4/zTMJQ++vICbytAiFbOjykl/0SbTkkKmo8tXNixHX9QOVHIPOu68jhafJ23TcKkwLzJsqydeQMECwKmAiQSifX0Sf9+WnyatxVIz77YSkFzY2PjwAuWFfmZYbiH8geVSyoV/xMFxsnC2wWSu9Ofca0Y/VsgoBAwFYI+6Z9UKnuk8H6mby5NtI6eRmEzpRdO2rZ9h1LqIl6fnIxRLyxQw1bA1hAwFSSZTD4/MNB4FH3Q38rbqkEyaX/T699Gwfj9WCy2N69DMCBgKszatV2bHcf+6NgwlYUMhxBkamBg5qc8Xrc0I5tVv8Kh62BCwFSosWEq9cBMhVzfUzQphS8zG+gApYDRY8l4OZP5iP7+TefxIkw97CCrfDIcjnxaSnkJLe/IG322nn7ubUplb3Mc56+8sRiWFTudguanvD6JISHcQ0v9e0BxEDBVYsmSJTsMD2c7afFzYgp6pkqJR/WZx65r3ppKrfwbby+EZUVuobfoCbw+MXXfokULF3V2dnqayA78g4CpMno8W1rZL6SbntBsql7fv9CPvk1K91balHuCN+YrEonsqJR8iBb34G0T0fum9OYjr8PUmKo3IPhs9Gxd+VUKmg+JKejRjPPguM0oz+fxUGA2u67QA3Hl+TeoXupJzaeQKcWJiVAkBEyVa21d8g7TzJ5PQfMR+nI6by+zP1AP47ZsNtuVSqXyvvwhHI5dQd+nN/3yQn/rbclkwsOmFfgFAVMjYrHYTOoJnKCU+hR9uZC3l5k+Y3ct/S4UNnW333PP3c/xB4zX2traZBghvV9nN942EQqZJRQy3bwO5YWAqUG6V2MYWR00epS43Xl7mekdsqspbG6tqzPvGJtG9y3Gppa9mdcnJh9vappxUFdXV5q3QPkgYGqYHkz7979ft8gwRAd9qadtDULY6J5NF4XNrTxsKGT0cKIexh2WX3Kc+JReAlHrEDAw4oADDjhn06aBy2fP3knsuMNsUVdfzx9Sblm6rdNhI6W6WQ8crufjVko+LEZGt8vLAH3v/tjhO3UQMDBi//33//y/Xnz+R3pZSim2n9Eoghg2hiH3VUqczR8wEfpTrrHtxGm8DuWBgIER4wNmvACGjd6MyvOQ9QjXdeWhekgI3gD+8/JCQQ2iXoPYNNAvntnwlPjzn+8X6//+iHjppRdprc1O1YWWXt+zhmGo7/IilIfXFwtqmA6bvr5eseHpJ8Vzzz37JdcVehCsy+n2En9swFiWFVvMi+A/BAwUJJvNqlQq8XvHSXyhqalx9y1hQ1tUr/DHBgGFo+7FYJdAmSFgoGhdXV3ZLWFjGHIPWo+XUmfnemrq54+dKhR8h0UikcDNE1XtEDAwYvr0xpdmzpw1slO3GHpiNceJr0gmE58cGGjc1TD0tVAjo9R5GdTbF0oZ39Tn/vA6+Ke4dxNUDT0NiJSqJ5PJiN7eV8Wrr74i+np7R/a7bMvOu+x29mOPPXYVr0+kubl5Wn39dmH6/zoow/TMjjP4Y8pDdlAA3s6r4A+kOWwlFAqJnXbaWey333xxyHveK+btva+YtcMORfdsenp6Bsf1bHYetxnlZeS6ElAXCnywlg2eaBixpQfD61tkMsPUs3ntzZ7N23be1VMPZiLt7e3TBweHl1CAfZJWfj3/k+8n2uBCyPJBwMCIXAEz3vDwkHjjjfSS++5bXdKVtLn5A7MaGoZ0z6aDYiBCpTr+mBJZ5ziJqb6ivCZgEwk8q6trEI2NjSU/QtTTs6zXtuPX0aZUezY7vBv1ak6nLTM92JS+VKCUDtcDWfEilB4CBgJp1apVGylsfm7biVbqWe1MYXMydbjvpqYMf2whXFecy2tQeggYCDzbtl/d0rNJp+t0z0ZPM5sSo9clFaodE7b5DwEDFaWnZ8Uro2GTCJum3EsppXsiq8XoKHleGNmsyvuqbCgMAgYqVjwefzaZtH9EYXMkdWYKCZvP6KFEeRFKBwEDVcFxnH9uCRvq2exLpQtE7iloGzOZkVkkwScIGKg61LN5koLmO45jH2IYYu64ns1bSClO5TUoHQQMVLVEIrFhXM/mQCpdTD2b8TNPvjcajR487msoIQQM1Azq2TxKQdNJPZv5UqqDxEjYiPWuK05hD4USQcBATbJt+5HRsEkc4LrmlbwdSgMBAzUvlVr5FK9BaSBgAMA3CBgA8A0CBgB8g4ABAN8gYADANwgYAPANAgYAfIOAAQDfIGAAwDcIGADwDQIGAHyDgAEA3yBgAMA3CBgA8A0CBgB8g4ABAN8gYADANwgYAPANAgYAfIOAAQDfIGAAwDcIGADwDQIGAHyDgAEA3yBgAMA3CBgA8A0CBgB8g4ABAN8gYADANwgYAPANAgYAfIOAAQDfIGAAwDcIGADwDQIGAHyDgAEA3yBgAMA3CBgA8A0CBgB8g4ABAN8gYADANwgYAPANAgYAfIOAAQDfIGCgEA+7buhpXgTgEDDgxWa6XdzU1HjoPffc/RxvBOAQMJCv3xqGOMRxEp1dXV1p3giwLQgYyOVVIeQZFCzHJBKJ9bwRYDIIGJiQlKLLNOUBjhP/GX2peDtALggY2JYnpVRh2058JB6Pv8wbAfKFgIHxhpVSl6TTgwfZtp3ijQBeSV6A2mRZ1lzTNLejHsujvA2gUAgYAPANAgYAfIOAAQDfIGAAwDcIGADwDQIGAHyDgAEA3yBgAMA3CBgA8A0CBgB8g4ABAN8gYADANwgYAPANAgYAfIOAAQDfIGAAwDcIGADwDQIGAHyDgAEA3yBgAAKgubl5xvbbb19nGMbQihUr3uDtlcr3gGlra9srk8nsxOuTaWpq+nNXV1eW1/1AL2yovr7+Xbyew0uO4/yTFyezYMGCutmzZ+/P6xORUm60bfsFXp9MR0dHfV9f3zt5fVuUUv3JZPJxXi+lWCz2tmw2uyevT8Q0zb/G4/EhXp8Mvb929fL+ovfWY1M1MyU9HzMzGXWklGqREMYB9CrsQ7e96NWexR8rpXhFKbGBFp+g1+pR05T39vU13rd2bZeevrdi+B4wlhX5Gf2Y03h9MvQCnEMr15W87gfLip1HL/L3eT2HKxwn8XlenMxo0LobeH0i9Ab7sW0nPsfrk2ltbd3TMELP8PoEhpQyjkwmu+/nDaViWdGz6O7HvD4RWon2oYB5ktcnQ++vH9CzdS6vT6SQn1EMy7J2pp96Ar3HTqQv30s3kz/GAx2MPRQ8NyuVuTOVSvXxBwRNIOdFUkp+a/HiY9/O66WmV0j6aRfxeo1ooCC/o6WlZTZvgOJFIpH3UPjdQqvYc/Qeu5xKC0Vx4aLV082iD59f0gfJC+Fw7Gr6OfvwBwVJIAOGzKyry/yAF0vNNENX0N0MXq8dak/TrL9WlKEnWyui0ej+1HNbSR+SD9DTSj0XEeKPKZHt6APis/Rz1tPPu5aCZjf+gCAIasBQL0Z00OZLO6+XCr0RPkg/Yymv1x51LL1Bz+NV8CYWizWEw5Hvuq74C33Zxtt9pNfhkylo/k4//wsiYB8WgQ2YMVfSNuz2vFispUuXNtIb4Ue8XsO+TZ+A7+dFyI/utbiuWiul/LIY3YyZCjPp5/8wEokmg9SbCXjAqD0pmf+HV4s1NDT8Dbrbg9drWIie59v0ERneAJOjlXkJfVjdT73hQ3jbVKDfo4Vey/vD4bZ387apEPCAGTlc+0V6Eb0eRp4QfdocrJQ6m9dB7JrJuDd1dHQUuyOyZtAm/Km0Mi8TwduPt7uU7m/p91vMG8ot8AEjRj5dxU87OzuL/l31/0GfNj8V/u14q3TH9PUNlLzHWI3oQ+8T1F+4RgT3vTSTfr+7p3rTt+iVtjzk+9asue8zvOrVmjXr9Hklh/M6bOV/WlujEV6Ef6OV9jjqufyfCNgO1W3Yjj6cl7e2tuV18qUfKiRgNPW9YnZejX3v13kd3sIwDHGTPjGQN8DI0aL5FC43itL1XF6jmz7ZMSWlsCkQeii39BnWma0fVig5yzDcO1tbW5t4SzlUUMCIJnphvZ5x+yalDH3Oy5Q8yRVox0zGvUVfesAball7e/v0bFbdRovFHNl06Zai22dCIWOO4yR2pNthdAvbdiKaTCaOcZz4fun0YKOUajG95/+XHvsi+z+82ts0Qz/nxXKopIDRTrIsK8yLuVDvJUoR8yFeh0kd3tu76du8WMuGhoa/SXcH8nqeFN1upN7hfB0mdPtFd3f3hJd19PT0DNq2/ZtkMn7exo0v76mU0pfbPMsfly99XhmtBx/hdb9VWsAQ46rm5uZpvDoR/alDnwJ5Xw8D/0afoP+lT0jk9Vo0th/jHF7PEwWDbKVQ+XgikVjPG3N54IEHhpNJ+5pp0+rn05f6IEVBdG9IX7XN636qwIAR+zQ0bHcBL04knc7oa43m8TrkRbqu+kUsFtubN9Qa03T1pSuF7HdZS1tFC2iz5x7e4NXy5csHKKQ+S4un0G2YNedjj/r6aWU9a7sSA0YPNfDl1tYl7+B1jjanDqLH/ievgxdyVjarfr1wYcd2vKVWtLbGDtcnsPF6HtZQryPiOM5LvKEYFDK/otdFb+4UsiP4HH0mOy/6pSIDhtQbRuYnYpLDhKPnzRi6O1nH28Czg2fM2HQZL9YKw1Bf4bU8PJVO1x2nex28oRSoR6RP8NPXHnm14+bNaU/DpxSjUgOGyKPC4ejJvLrF6tXr9JO4iNehMPrK3Ugk9kler3YtLS270N0SXs/BpefrlJ6eFa/whlKinsxV1J+/ldfz8Gle8EsFB4x+04tL9ahpvK7fFNT2HV6H4tDm5lX6PBBer2aGUXeS8Ljvhd5719m2fS+v+0Ppgc88DTxFv9/8Ul5+M5mgBYzuTnoZMnG266rv8aJp1uvu/A68PjH5V16Bbdpe748p5zb8VKOV8cO8lkOGVvpv8aJf9P4dCv63rAO5KCU/wGt+CFrAvEwvqb7SOW9KiZPHX9QVjUabxejwhPlKu64o2zZpkIyeNerZ/oOD6at4sRqNBelhvD4ZPZwl9V6e4HU/1deHrqa713k9h2N4wQ9BCxiRTm++RIyeOp0vSdu7V+sBf/SNwmLSnb9vJb+eyWyuyR4MPXG/pjt9hrNXH6dQP50Xq83g4PCRwuPmkWkKfY1SWa1cuVJfbnAnr+fwPi/nkxUqcAHT09OTMYyRnVB5j/xOnxr7Udf9S3S7kL7Me+R+8tDGjS957l5Wk40bX/4i3a3h9dzU5ZZlLeDV6qK8jqnyamNjY5n2vWyN1gH9YeHFtFBo+r68WGqBCxgtkUj8hbYrv8vrOXyVbufz4iSGlTJO0WdJ8oZaMvr3ux/V02Twthwa6Pm7IxKJ7MgbqgU9J/vx2mRoJV9brul2ONcd/h3d6csR8hYKubUZMNrw8NA36AX+E69PQnf38r44jwLsO8lk9595vRbpOZ5o01If8tcX4uWNXp+9lJLX6kXeViU8jdhPz8fDvFYuq1at2kgB9w9enwy95r6foR3YgNGbSq5rnCoKOyU6B/U3CjAcxh4nmUx0053e/+VVezgcrcqzpWmF9XAkcuTxG3itnCjgnuK1ySnfRxcIbMBoYz0Mfbl6KWUNQ56sr1blDbVu0aLD9T4sPZSAJ/TGvqS1Nap3iFYZ6elwPD0Pns5HKT35Kq9MRkrD9wsfAx0wmmnKTrp7hNcLRZtGlyYSiT/yOoxcXuFms8Mfp8XneVsOIcMQN2/rpMfKpjwdZaHnIO8DE/5QnqaVpXXB099XiMAHzOhcxYY+qlSKnWfrN22aeTEvwr/Rtvy/lJIfE94vpNvDddXN1TRoOG3yeFphXVdO8QWh3n4+vc6beK3UAh8wmuN030fdz2LnMXJdV3ym0iYPnwrJZPy39OnmeUpdfcVxb29/3kNpBB295zyugGpnXiknes08TQMspfL493lXEQGj9ZGIidgAAAYhSURBVPc3XihGxyot1I9SqcTveRG2LZm09U7wu3g9FyllZzgcs3i9QnnapyE8HnUqNXru5/HaZCiQXua1UquYgBnteWRPER4PpY55Op0e/BovwqRUXZ35Kbp/mjfkYNAn4/WLFx/7dt5QaWgTwtMp/9SD83RZQSk1N7fvRL/Bf/D6ZOh1eozXSq1iAkZzHGcNveher4NR9ESe3tPT43t3sNroU9Dpufuo8HBW9ZidQ6FMF31CVvRYPF5XQNqkOmTJkiWeDm2XyrRpw0fRnafzkUKhkKe/rxAVFTDatGkhPf/vk7w+iatt2/Z86BVG0XP3B7r7Eq/nYSG93yv6/BjX9XSipxYaHnaP58VyoN/V48+V/+ru7vZ0Yl4hKi5gVqxY8QZ9suirn3OeFk1d1memTasvZDQyGMdxEpfTnZ4LyBN9pi+vVZJMZnC18H6i53+WYhZSL8YGxfI4OLv6jf6HV0utrE9EqejpHOgu1zwv1EMXZ/g1ZGGtSacH9WDTf+f1aja2We3xnCl10OrV647jVT+FQnX6GrzpvD4ZWjlW8ZofKjJgNNOU1G2XE3bx6NPzF6lUwuZ1KIxe2VzX0ANNv8HbqpmUsovXcqH33kXlOh+ora1tV/og1eHvRdowPF99XZCKDZh4PN4vpatPwNtWN+/5UMj0cmU15CGV6n6YVp+qHwdmPKWyNwnvJx2+q69voCzvv0zG1eP5eOq90F/VTVsBXg/BF6RiA0bTO2/p0+JXvC6lOmtsEB4oMceJ36iU/CWvV6vRKUfU3byeh4sjkUgrL5ZSJBI7l+68DumpzzjWg7KVRUUHjJbNZvSTPG5KTaUHXPZ8ghjkb3h481keh9KocKbXsYm0Ogri26PR6ELeUArhcPREfV0dr+fh/nLuOqj4gEmlUn2UyWeOffkivfEr+tBoJRi9El3p/TFTfPVweehLVahfnOT1PDS5rrApDJbyhmKEw5Ev0Pv8elosYD+P/Dqv+KniA0ajbix1YeVNhiHOLte2Za3TA1srVTuDpUvp6g8ur4estUYKg2W0OfPDYueF1jt0LSvaJaX8oSgoXEQ3beKu4EU/VUXAaPTEnZRIJMqyZxxGJZMJfYSlkEHDKw4Fqh4ypNALbiVtznyhvn7aesuKnWNZ1vb8AZNpaWmZTcFyUSaT/ZsoYJ/LmM2mKfUcSmVVNQEDU6PwQcMrz8BAo76e7S+87sHutGl5Oa12L1Jg3BCJRD7R0tK2H/Vstpq5QM+OEY1GD6ZNqzMsK3KnadY9R+VOyqlZ4x/nBQXc5+PxuJcz4EsCAQNFKWLQ8IqjL7ilzXC976nY69r0ptJJSsnrTNNdTz2bNyhwXqVA2aDvs1n1huuKh+g5/QmFip4grYH/Bx7dmEza1/BiOSBgoGiFDhpeiWgzfL2USl/342UG0lz0RaE7jF1aoS+WLOV6ubahoW7Kzl0q5R8CNayIQcMrzujFs1Kf5Bn0QH0onZ7Wpq/f4w3lgoCBkil00PBKNHrC4cgO16AOHr8una5r7elZ1ssbygkBAyVTxKDhFYl6bXfS5lIbLW7kbVPslnR68JienhVTvl8MAQMlVcSg4RVJX9lvmvLdQqjf8bYpMKiUOtdxEicGZVoeBAyUXKGDhleqeDz+bFPTzMW0yaQP2ffz9jKhTVP3kGTSLvRcHV8gYMAXhQ4aXqn0nNS0yXRZKGTsL6XQh4S9DjNaEAq1R2kz7cPUawk7jhO48XoQMOCXQgcNr2jd3d0v2nbiNNps2puC5jLhfWaCfOghSu4VQh5/xBGHv5M20+7gDwgKBEyZpNNp/abI+0afTEE/BJrTuEHDS3nOyFaklPp5esvzN9FteNjQ977Tm00UNF9samrcjTZd2un11BcnFrPzW18HpYfw/G/qJc2lHstRjhNfpnes8wcGiadRyAGgOJFIZB+ljPdR72Z/yjta1ifXqem0Ks4Uox/4FMZ6xsWROYv0ZPZP0NcPNTSE1k3l+SyFQsAAgG8QMADgGwQMAPgGAQMAvkHAAIBvEDAA4BsEDAD4BgEDAL5BwACAbxAwAOAbBAwA+AYBAwC+QcAAgG8QMADgGwQMAPgGAQMAvvl/6e6r6eH/FhoAAAAASUVORK5CYII=;" vertex="1" parent="701YrJpAbFropww0fSCw-46">
          <mxGeometry x="40" y="32.5" width="60" height="60" as="geometry" />
        </mxCell>
        <mxCell id="701YrJpAbFropww0fSCw-54" value="" style="group" vertex="1" connectable="0" parent="1">
          <mxGeometry x="590" y="450" width="167.5" height="108" as="geometry" />
        </mxCell>
        <mxCell id="701YrJpAbFropww0fSCw-55" value="AWS S3" style="rounded=1;whiteSpace=wrap;html=1;labelPosition=center;verticalLabelPosition=top;align=center;verticalAlign=bottom;" vertex="1" parent="701YrJpAbFropww0fSCw-54">
          <mxGeometry y="27.5" width="140" height="70" as="geometry" />
        </mxCell>
        <mxCell id="701YrJpAbFropww0fSCw-53" value="" style="outlineConnect=0;dashed=0;verticalLabelPosition=bottom;verticalAlign=top;align=center;html=1;shape=mxgraph.aws3.s3;fillColor=#E05243;gradientColor=none;" vertex="1" parent="701YrJpAbFropww0fSCw-54">
          <mxGeometry x="48.25" y="37.5" width="43.5" height="50" as="geometry" />
        </mxCell>
        <mxCell id="701YrJpAbFropww0fSCw-60" style="edgeStyle=orthogonalEdgeStyle;rounded=0;orthogonalLoop=1;jettySize=auto;html=1;entryX=0.5;entryY=0;entryDx=0;entryDy=0;startArrow=classic;startFill=1;" edge="1" parent="1" source="701YrJpAbFropww0fSCw-47" target="701YrJpAbFropww0fSCw-55">
          <mxGeometry relative="1" as="geometry" />
        </mxCell>
        <mxCell id="701YrJpAbFropww0fSCw-62" style="edgeStyle=orthogonalEdgeStyle;rounded=0;orthogonalLoop=1;jettySize=auto;html=1;entryX=0;entryY=0.5;entryDx=0;entryDy=0;" edge="1" parent="1" source="701YrJpAbFropww0fSCw-17" target="701YrJpAbFropww0fSCw-38">
          <mxGeometry relative="1" as="geometry" />
        </mxCell>
        <mxCell id="701YrJpAbFropww0fSCw-63" style="edgeStyle=orthogonalEdgeStyle;rounded=0;orthogonalLoop=1;jettySize=auto;html=1;entryX=0;entryY=0.5;entryDx=0;entryDy=0;" edge="1" parent="1" source="701YrJpAbFropww0fSCw-17" target="701YrJpAbFropww0fSCw-43">
          <mxGeometry relative="1" as="geometry" />
        </mxCell>
        <mxCell id="701YrJpAbFropww0fSCw-73" style="edgeStyle=orthogonalEdgeStyle;rounded=0;orthogonalLoop=1;jettySize=auto;html=1;entryX=0;entryY=0.5;entryDx=0;entryDy=0;" edge="1" parent="1" source="701YrJpAbFropww0fSCw-17" target="701YrJpAbFropww0fSCw-47">
          <mxGeometry relative="1" as="geometry" />
        </mxCell>
      </root>
    </mxGraphModel>
  </diagram>
</mxfile>
